<svg>
	<symbol id="video-play" viewBox="0 0 24 24" xmlns="http://www.w3.org/2000/svg">
		<path fill-rule="evenodd" clip-rule="evenodd" d="M12 0C5.37258 0 0 5.37258 0 12C0 18.6274 5.37258 24 12 24C18.6274 24 24 18.6274 24 12C24 5.37258 18.6274 0 12 0ZM8.99268 10.18V13.7144C8.99268 15.3012 8.99268 16.0947 9.50559 16.3807C10.0185 16.6668 10.6936 16.2499 12.0437 15.416L15.0731 13.5448L15.0731 13.5448C16.3722 12.7424 17.0218 12.3412 17.0071 11.7668C16.9924 11.1924 16.3231 10.825 14.9846 10.0901L14.9846 10.0901L11.9552 8.42688C10.6345 7.70177 9.97411 7.33922 9.48339 7.62962C8.99268 7.92001 8.99268 8.67335 8.99268 10.18Z"/>
	</symbol>
		
</svg>