<svg>
	<!--! symbol id="your icon"  === каждый символ это отдельная иконка и обращение к ней
	идет через id-->
	<!--!
	после вставки удалить svg тег и все fill (цвет) -->
	<symbol id="video-play" viewBox="0 0 24 24" xmlns="http://www.w3.org/2000/svg">
		<path fill-rule="evenodd" clip-rule="evenodd"
			d="M12 0C5.37258 0 0 5.37258 0 12C0 18.6274 5.37258 24 12 24C18.6274 24 24 18.6274 24 12C24 5.37258 18.6274 0 12 0ZM8.99268 10.18V13.7144C8.99268 15.3012 8.99268 16.0947 9.50559 16.3807C10.0185 16.6668 10.6936 16.2499 12.0437 15.416L15.0731 13.5448L15.0731 13.5448C16.3722 12.7424 17.0218 12.3412 17.0071 11.7668C16.9924 11.1924 16.3231 10.825 14.9846 10.0901L14.9846 10.0901L11.9552 8.42688C10.6345 7.70177 9.97411 7.33922 9.48339 7.62962C8.99268 7.92001 8.99268 8.67335 8.99268 10.18Z" />
	</symbol>
	<symbol id="diagnostics" viewBox="0 0 44 49" xmlns="http://www.w3.org/2000/svg">
		<path fill-rule="evenodd" clip-rule="evenodd"
			d="M24.6426 17.2542C24.5304 16.9439 24.4396 16.6589 24.3664 16.4064C24.8161 16.2847 25.2563 16.1048 25.6835 15.8602C26.198 15.5656 26.5055 15.0402 26.5548 14.4818C28.8972 12.2217 29.9829 8.31344 30.0462 8.08212C30.1763 7.5969 29.9537 7.09945 29.5369 6.87249C29.8719 3.84138 28.7737 2.31459 28.1127 1.69232C28.1629 1.40106 28.0492 1.08969 27.7992 0.922765L26.5814 0.109387C26.2641 -0.102778 25.8646 0.00420578 25.69 0.350005L25.1108 1.49533C24.9357 1.84056 25.0906 2.20989 25.4548 2.3199L26.8302 2.73437C27.179 2.83955 27.5963 2.66912 27.7939 2.3568C28.3428 2.9471 29.1318 4.26135 28.8594 6.76844C28.4869 6.84109 28.1653 7.12012 28.0565 7.51932C27.7315 8.7152 26.7973 11.1668 25.4118 12.6748C24.9612 12.5123 24.4502 12.5349 24.0015 12.7922C23.6847 12.9734 23.3753 13.0647 23.0584 13.0716H22.9964C22.6957 13.0652 22.4028 12.9828 22.1032 12.8192C21.6432 12.5688 21.1246 12.56 20.6735 12.7382C19.2563 11.2363 18.3018 8.7317 17.9713 7.51913C17.8628 7.11889 17.5424 6.84052 17.1686 6.76778C16.8967 4.26069 17.686 2.94644 18.2341 2.35613C18.4316 2.66855 18.8494 2.83889 19.1981 2.7338L20.5735 2.31933C20.9383 2.20932 21.0922 1.84057 20.9176 1.49477L20.3379 0.349531C20.1637 0.00382639 19.7642 -0.103252 19.4465 0.108913L18.2299 0.921722C17.9797 1.08865 17.8657 1.40011 17.9162 1.69128C17.2541 2.31345 16.1569 3.84091 16.4917 6.87154C16.0752 7.0984 15.8518 7.59595 15.9825 8.0806C16.0469 8.31686 17.1663 12.3538 19.5907 14.5943C19.6596 15.1389 19.9725 15.6428 20.4825 15.9212C21.0547 16.2335 21.6495 16.4344 22.2587 16.5282C22.3075 16.7201 22.3664 16.9349 22.4372 17.169C17.3502 17.1136 12.1931 18.0229 9.40644 19.897C7.8416 20.9508 6.46489 23.7424 5.40814 26.5917H1.12594C0.789085 26.5917 0.468002 26.7483 0.252823 27.0167C0.0387688 27.2862 -0.0434723 27.6374 0.0218735 27.9749L0.657272 31.1155C0.763172 31.6522 1.22508 32.0345 1.76022 32.0345H3.11326C1.81654 33.5087 1.19579 35.394 1.20255 37.2758C1.21269 39.3592 1.98666 41.4461 3.60671 42.9629V47.2724C3.60671 48.2249 4.36604 49 5.29661 49H9.24647C10.1793 49 10.9364 48.2249 10.9364 47.2724V45.5058H33.0639V47.2724C33.0639 48.2249 33.821 49 34.7538 49H38.7037C39.6365 49 40.3936 48.2249 40.3936 47.2724V42.8765C40.4021 42.8684 40.411 42.8616 40.4201 42.8547C40.4277 42.8489 40.4354 42.843 40.4431 42.8362C41.9697 41.3989 42.8045 39.3673 42.7966 37.1192C42.7887 35.2996 42.195 33.4811 40.9704 32.0368H42.2389C42.7718 32.0368 43.2337 31.6545 43.3419 31.119L43.9761 27.9772C44.046 27.6374 43.9604 27.2839 43.7463 27.0167C43.5334 26.7483 43.2134 26.5917 42.8732 26.5917H38.591C37.5286 23.747 36.1575 20.9519 34.5916 19.897C32.3698 18.4028 28.6412 17.5219 24.6426 17.2542ZM11.2665 22.7819C15.5791 19.8785 28.4212 19.8785 32.7361 22.7819C33.5743 23.3463 34.6524 25.6174 35.6382 28.3987H8.36209C9.35012 25.6162 10.4283 23.344 11.2665 22.7819ZM34.4654 34.1548C36.3006 34.1548 37.79 35.675 37.79 37.5523C37.79 39.4295 36.3006 40.9509 34.4654 40.9509C32.6279 40.9509 31.1408 39.4295 31.1408 37.5523C31.1408 35.675 32.6279 34.1548 34.4654 34.1548ZM12.8155 37.5523C12.8155 39.4295 11.3262 40.9509 9.49094 40.9509C7.65571 40.9509 6.16634 39.4295 6.16634 37.5523C6.16634 35.675 7.65345 34.1548 9.49094 34.1548C11.3262 34.1548 12.8155 35.675 12.8155 37.5523Z" />
	</symbol>
	<symbol id="engine" viewBox="0 0 42 42" xmlns="http://www.w3.org/2000/svg">
		<path fill-rule="evenodd" clip-rule="evenodd"
			d="M17.2266 40.7695C17.2266 41.4491 17.7775 42 18.457 42H23.3789C24.0585 42 24.6094 41.4491 24.6094 40.7695V31.5228C23.4542 31.9325 22.2118 32.1562 20.918 32.1562C14.8116 32.1562 9.84375 27.1884 9.84375 21.082C9.84375 14.9757 14.8116 10.0078 20.918 10.0078C22.2118 10.0078 23.4542 10.2316 24.6094 10.6413V1.39453C24.6094 0.714985 24.0585 0.164062 23.3789 0.164062H18.457C17.7775 0.164062 17.2266 0.714985 17.2266 1.39453V2.99619C14.9176 3.46664 12.708 4.38195 10.7399 5.68345L9.60701 4.55069C9.12647 4.07014 8.34742 4.07014 7.86688 4.55069L4.38654 8.03102C4.15579 8.26178 4.02618 8.57464 4.02618 8.90096C4.02618 9.22728 4.15579 9.54023 4.38654 9.77099L5.51939 10.9038C4.21788 12.8721 3.3025 15.0817 2.83213 17.3906H1.23047C0.550922 17.3906 0 17.9415 0 18.6211V23.543C0 24.2225 0.550922 24.7734 1.23047 24.7734H2.83213C3.3025 27.0824 4.21788 29.292 5.51939 31.2601L4.38662 32.393C3.90608 32.8735 3.90608 33.6527 4.38662 34.1331L7.86688 37.6134C8.34742 38.0939 9.12647 38.0939 9.60701 37.6134L10.7399 36.4806C12.708 37.7821 14.9176 38.6975 17.2266 39.1679V40.7695ZM32.9766 7.13672C31.6023 7.13672 30.4234 6.2872 29.9356 5.08594H27.0703V2.625H29.9356C30.4234 1.42373 31.6023 0.574219 32.9766 0.574219C34.7858 0.574219 36.2578 2.04619 36.2578 3.85547C36.2578 5.66475 34.7858 7.13672 32.9766 7.13672ZM38.7188 14.1094C38.1794 14.1094 37.6706 13.9778 37.2212 13.7462L34.1745 16.2852C33.9533 16.4694 33.6746 16.5703 33.3867 16.5703H27.0703V14.1094H32.9412L35.6126 11.8832C35.4997 11.5519 35.4375 11.1973 35.4375 10.8281C35.4375 9.01884 36.9095 7.54688 38.7188 7.54688C40.528 7.54688 42 9.01884 42 10.8281C42 12.6374 40.528 14.1094 38.7188 14.1094ZM35.6778 22.3125C36.1656 23.5138 37.3445 24.3633 38.7188 24.3633C40.528 24.3633 42 22.8913 42 21.082C42 19.2728 40.528 17.8008 38.7188 17.8008C37.3445 17.8008 36.1656 18.6503 35.6778 19.8516H27.0703V22.3125H35.6778ZM34.1745 25.879L37.2212 28.4179C37.6706 28.1863 38.1794 28.0547 38.7188 28.0547C40.528 28.0547 42 29.5267 42 31.3359C42 33.1452 40.528 34.6172 38.7188 34.6172C36.9095 34.6172 35.4375 33.1452 35.4375 31.3359C35.4375 30.9668 35.4997 30.6122 35.6126 30.2809L32.9412 28.0547H27.0703V25.5938H33.3867C33.6746 25.5938 33.9533 25.6946 34.1745 25.879ZM36.2578 38.3086C36.2578 36.4993 34.7858 35.0273 32.9766 35.0273C31.6023 35.0273 30.4234 35.8769 29.9356 37.0781H27.0703V39.5391H29.9356C30.4234 40.7403 31.6023 41.5898 32.9766 41.5898C34.7858 41.5898 36.2578 40.1179 36.2578 38.3086ZM12.3047 21.082C12.3047 16.3327 16.1686 12.4688 20.918 12.4688C22.2383 12.4688 23.4899 12.7678 24.6094 13.301V28.8631C23.4899 29.3963 22.2383 29.6953 20.918 29.6953C16.1686 29.6953 12.3047 25.8314 12.3047 21.082Z" />
	</symbol>
	<symbol id="wheel" viewBox="0 0 46 46" xmlns="http://www.w3.org/2000/svg">
		<path fill-rule="evenodd" clip-rule="evenodd"
			d="M0 23C0 10.318 10.317 0 23 0C35.683 0 46 10.318 46 23C46 35.682 35.683 46 23 46C10.317 46 0 35.682 0 23ZM5.75 23C5.75 32.5113 13.4878 40.25 23 40.25C32.5122 40.25 40.25 32.5113 40.25 23C40.25 13.4887 32.5122 5.75 23 5.75C13.4878 5.75 5.75 13.4887 5.75 23ZM7.6665 23.0001C7.6665 14.5455 14.5452 7.66675 22.9999 7.66675C31.4545 7.66675 38.3332 14.5455 38.3332 23.0001C38.3332 31.4548 31.4545 38.3335 22.9999 38.3335C14.5452 38.3335 7.6665 31.4548 7.6665 23.0001ZM31.5182 13.0789C31.2599 13.0892 31.0166 13.2025 30.8444 13.3943C28.0835 16.4565 27.406 19.2538 29.0306 20.8775C29.7943 21.6411 31.112 22.0399 32.5027 22.0399C33.5696 22.0399 34.6832 21.805 35.621 21.3202C36.0047 21.1218 36.2088 20.6913 36.1189 20.2683C35.5537 17.6179 34.2023 15.2221 32.2145 13.34C32.0274 13.1622 31.7409 13.0537 31.5182 13.0789ZM14.4816 33.072C14.7399 33.0616 14.9832 32.9474 15.1554 32.7556C17.9144 29.6935 18.592 26.8962 16.9692 25.2723C15.6197 23.9228 12.5388 23.7151 10.3788 24.8297C9.99507 25.0281 9.79104 25.4586 9.88088 25.8816C10.4461 28.5329 11.7975 30.9287 13.7853 32.8108C13.9631 32.9792 14.199 33.0729 14.4441 33.0729C14.4573 33.0729 14.4704 33.0729 14.4816 33.072ZM13.497 22.04C14.8877 22.04 16.2054 21.6412 16.9691 20.8776C18.5938 19.2538 17.9162 16.4565 15.1553 13.3944C14.9831 13.2026 14.7398 13.0894 14.4815 13.079C14.2476 13.0519 13.9724 13.1623 13.7852 13.3401C11.7974 15.2222 10.4461 17.618 9.88079 20.2684C9.79095 20.6914 9.99498 21.1219 10.3787 21.3203C11.3183 21.805 12.4301 22.04 13.497 22.04ZM22.9999 36.4168C24.383 36.4168 25.7569 36.2025 27.084 35.7795C27.5052 35.6447 27.7803 35.2404 27.7504 34.7996C27.5107 31.3509 25.4687 28.7501 22.9999 28.7501C20.531 28.7501 18.489 31.3509 18.2494 34.7997C18.2195 35.2404 18.4946 35.6447 18.9158 35.7795C20.2427 36.2026 21.6167 36.4168 22.9999 36.4168ZM22.9999 19.1667C20.8867 19.1667 19.1665 20.886 19.1665 23.0001C19.1665 25.1142 20.8867 26.8335 22.9999 26.8335C25.1131 26.8335 26.8332 25.1143 26.8332 23.0001C26.8332 20.8859 25.1131 19.1667 22.9999 19.1667ZM22.9999 17.325C25.4687 17.325 27.5107 14.7242 27.7504 11.2764C27.7803 10.8356 27.5071 10.4313 27.0859 10.2975C24.4318 9.44952 21.568 9.44952 18.9139 10.2975C18.4927 10.4313 18.2195 10.8356 18.2494 11.2764C18.489 14.7242 20.531 17.325 22.9999 17.325ZM32.2145 32.6583C34.2023 30.7763 35.5536 28.3804 36.1189 25.7291C36.2088 25.3061 36.0047 24.8756 35.621 24.6773C33.4592 23.5645 30.3802 23.7695 29.0306 25.12C27.406 26.7437 28.0836 29.542 30.8444 32.6041C31.0166 32.796 31.2599 32.9092 31.5182 32.9195C31.5247 32.92 31.5318 32.9202 31.5392 32.9203C31.5446 32.9204 31.5502 32.9204 31.5557 32.9204C31.8009 32.9204 32.0367 32.8268 32.2145 32.6583Z" />
	</symbol>
	<symbol id="oil" viewBox="0 0 34 46" xmlns="http://www.w3.org/2000/svg">
		<path fill-rule="evenodd" clip-rule="evenodd"
			d="M7.56641 0H15.6523C16.3966 0 17 0.603391 17 1.34766V2.69531H6.21875V1.34766C6.21875 0.603391 6.82214 0 7.56641 0ZM33.1719 18.1934C33.1719 17.8501 33.0409 17.5197 32.8056 17.2697L22.0243 5.8146C21.7696 5.54408 21.4146 5.39062 21.043 5.39062H7.56641C7.18152 5.39062 6.81495 5.55522 6.55917 5.8429L1.16854 11.9074C0.949324 12.1541 0.828125 12.4726 0.828125 12.8027V36.5664C0.828125 37.6009 1.21868 38.5459 1.86007 39.2617C1.21868 39.9775 0.828125 40.9226 0.828125 41.957C0.828125 44.1863 2.6418 46 4.87109 46H29.1289C31.3582 46 33.1719 44.1863 33.1719 41.957C33.1719 40.9226 32.7813 39.9775 32.1399 39.2617C32.7814 38.5459 33.1719 37.6009 33.1719 36.5664V18.1934ZM17 37.9137C14.7707 37.9137 12.957 36.1 12.957 33.8707C12.957 33.3157 13.1156 32.3044 14.4866 29.941C15.1791 28.7471 15.8624 27.7558 15.8911 27.7142C16.1428 27.35 16.5573 27.1325 17 27.1325C17.4428 27.1325 17.8572 27.3499 18.1089 27.7142C18.1376 27.7558 18.8209 28.7471 19.5134 29.941C20.8844 32.3045 21.043 33.3157 21.043 33.8707C21.043 36.1 19.2293 37.9137 17 37.9137ZM26.9347 22.0143C26.4135 22.5052 25.7502 22.7474 25.0869 22.7474C24.3697 22.7474 23.655 22.4631 23.1246 21.8998L16.9351 15.3234C15.9139 14.239 15.9665 12.5333 17.0496 11.5134C18.1354 10.4934 19.8423 10.5448 20.8596 11.6278L27.0491 18.2042C28.0704 19.2887 28.0177 20.9943 26.9347 22.0143ZM15.6523 33.8724C15.6523 34.614 16.2569 35.2186 17 35.2186C17.7427 35.2186 18.347 34.6145 18.3477 33.872C18.3362 33.4585 17.776 32.2846 17.0003 30.978C16.2239 32.286 15.6633 33.4604 15.6523 33.8724Z" />
	</symbol>
	<symbol id="car" viewBox="0 0 55 39" xmlns="http://www.w3.org/2000/svg">
		<path
			d="M53.8345 11.8573C53.5697 11.5343 53.1746 11.3457 52.7601 11.3457H47.4905C46.19 7.91585 44.4959 4.55528 42.5702 3.28675C35.9087 -1.09558 18.2394 -1.09558 11.5778 3.28675C9.65078 4.55666 7.96357 7.92139 6.65622 11.3457H1.38661C0.967927 11.3457 0.574197 11.5343 0.312172 11.8573C0.0487611 12.1789 -0.0566033 12.6046 0.0293518 13.0135L0.80988 16.7956C0.942972 17.4402 1.51139 17.9005 2.16714 17.9005H3.7282C2.22121 19.639 1.49059 21.8281 1.48089 24.0186C1.47118 26.7248 2.49848 29.1703 4.37702 30.9005C4.39782 30.9186 4.41861 30.931 4.43802 30.9491V36.2408C4.43802 37.3874 5.36966 38.3204 6.51758 38.3204H11.3782C12.5261 38.3204 13.4578 37.3874 13.4578 36.2408V34.1141H40.6875V36.2408C40.6875 37.3874 41.6192 38.3204 42.7671 38.3204H47.6277C48.7729 38.3204 49.7073 37.3874 49.7073 36.2408V31.053C51.7009 29.2272 52.6533 26.7151 52.6658 24.2071C52.6741 21.9418 51.9102 19.6723 50.3145 17.8977H51.9795C52.6381 17.8977 53.2065 17.4375 53.3368 16.7914L54.1187 13.0108C54.1991 12.6046 54.0979 12.1817 53.8345 11.8573ZM13.8612 6.75961C19.171 3.26456 34.9743 3.26456 40.2813 6.75961C41.3128 7.43616 42.6395 10.1715 43.8554 13.521H10.2899C11.503 10.1729 12.8297 7.43893 13.8612 6.75961ZM7.64193 24.5399C7.64193 22.2801 9.47472 20.4501 11.7331 20.4501C13.9943 20.4501 15.8243 22.2801 15.8243 24.5399C15.8243 26.7996 13.9943 28.631 11.7331 28.631C9.47472 28.631 7.64193 26.7996 7.64193 24.5399ZM42.4663 28.631C40.2078 28.631 38.3751 26.7996 38.3751 24.5399C38.3751 22.2801 40.2078 20.4501 42.4663 20.4501C44.7274 20.4501 46.5574 22.2801 46.5574 24.5399C46.5574 26.7996 44.7247 28.631 42.4663 28.631Z" />
	</symbol>
	<symbol id="battery" viewBox="0 0 44 40" xmlns="http://www.w3.org/2000/svg">
		<path fill-rule="evenodd" clip-rule="evenodd"
			d="M16.5 2.58322C16.5 1.57077 15.6792 0.75 14.6668 0.75H7.33322C6.32077 0.75 5.5 1.57077 5.5 2.58322V6.25H16.5V2.58322ZM38.5 2.58322C38.5 1.57077 37.6792 0.75 36.6668 0.75H29.3332C28.3208 0.75 27.5 1.57077 27.5 2.58322V6.25H38.5V2.58322ZM0 35.5833V8.08325H44V35.5833C44 36.5957 43.1792 37.4168 42.1668 37.4168H38.5V39.25H34.8332V37.4168H9.16678V39.25H5.5V37.4168H1.83322C0.82077 37.4168 0 36.5957 0 35.5833ZM18.3332 22.75L14.6668 33.75L27.5 22.75H22L25.6668 11.75L12.8332 22.75H18.3332Z" />
	</symbol>
	<symbol id="insurance" viewBox="0 0 38 46" xmlns="http://www.w3.org/2000/svg">
		<path
			d="M22.1472 8.08594H15.8528C13.8933 10.3195 11.4334 12.04 8.66797 13.1154V21.3604C8.66797 28.3331 12.7046 34.5863 19 37.4487C25.2954 34.5863 29.332 28.3331 29.332 21.3604V13.1163C26.5657 12.0409 24.1067 10.3204 22.1472 8.08594ZM26.2423 19.6785L17.8563 28.0637C17.593 28.3269 17.248 28.4589 16.9039 28.4589C16.5589 28.4589 16.2139 28.3268 15.9507 28.0637L11.7577 23.8716C11.2321 23.3451 11.2321 22.4916 11.7577 21.9651C12.2842 21.4395 13.1377 21.4395 13.6642 21.9651L16.9039 25.2049L24.3367 17.773C24.8623 17.2465 25.7158 17.2465 26.2423 17.773C26.7679 18.2994 26.7679 19.152 26.2423 19.6785ZM36.0622 6.28906C32.1774 6.28906 28.6393 4.15438 26.8263 0.71875C26.5935 0.276719 26.1345 0 25.6349 0H12.3649C11.8654 0 11.4063 0.276719 11.1727 0.71875C9.36066 4.15438 5.82262 6.28906 1.92969 6.28906C1.18578 6.28906 0.582031 6.89281 0.582031 7.63672V21.3604C0.582031 26.8777 2.30613 32.1461 5.56746 36.5961C8.82879 41.046 13.3327 44.2758 18.5939 45.9371C18.726 45.9793 18.8634 46 19 46C19.1366 46 19.274 45.9793 19.4061 45.9371C24.6674 44.2759 29.1712 41.0461 32.4325 36.5961C35.6939 32.146 37.418 26.8777 37.418 21.3604V7.63672C37.418 6.89281 36.8061 6.28906 36.0622 6.28906ZM32.0273 21.2993C32.0273 29.5523 27.1174 36.933 19.5184 40.1018C19.3522 40.171 19.1761 40.2051 19 40.2051C18.8239 40.2051 18.6469 40.1709 18.4816 40.1018C10.8826 36.933 5.97266 29.5522 5.97266 21.2993V12.1064C5.97266 11.5243 6.34641 11.0077 6.89984 10.8262C9.75957 9.88551 12.2788 8.15602 14.1844 5.82457C14.4404 5.51102 14.8241 5.32953 15.2284 5.32953H22.7716C23.1849 5.32953 23.6719 5.64937 23.8155 5.82457C25.7211 8.15602 28.2403 9.88551 31.1001 10.8262C31.4946 10.9555 31.7964 11.2547 31.9383 11.6276C31.9402 11.6312 31.941 11.6357 31.9428 11.6393C31.977 11.7318 32.0012 11.8288 32.0148 11.9286C32.0157 11.9384 32.0174 11.9492 32.0184 11.9591C32.0238 12.0076 32.0273 12.0561 32.0273 12.1064V21.2993Z" />
	</symbol>
	<symbol id="service" viewBox="0 0 46 46" xmlns="http://www.w3.org/2000/svg">
		<path
			d="M45.8549 20.4463C45.7822 19.7998 45.0281 19.3134 44.376 19.3134C42.2685 19.3134 40.3981 18.0764 39.6137 16.1619C38.813 14.2014 39.3296 11.9154 40.8998 10.475C41.3944 10.0228 41.4547 9.26565 41.0401 8.74006C39.9611 7.37021 38.7352 6.13264 37.3964 5.06019C36.8726 4.64004 36.1029 4.69853 35.6484 5.20163C34.2775 6.71989 31.8149 7.28407 29.9119 6.49013C27.9323 5.65719 26.6828 3.65055 26.8056 1.4967C26.846 0.819725 26.351 0.231479 25.6764 0.1529C23.9582 -0.0460337 22.2249 -0.0518028 20.5018 0.139372C19.8357 0.212978 19.3412 0.787299 19.3633 1.45572C19.4379 3.58848 18.1743 5.55971 16.2138 6.36281C14.3336 7.13089 11.8882 6.57089 10.5201 5.06596C10.0679 4.57022 9.31176 4.50935 8.78439 4.92054C7.40618 6.00214 6.1527 7.2405 5.06374 8.59922C4.63941 9.12739 4.70208 9.89288 5.2008 10.3467C6.80202 11.7967 7.31825 14.1023 6.48691 16.0857C5.69316 17.9765 3.72989 19.1946 1.48254 19.1946C0.753246 19.1711 0.234228 19.6611 0.15366 20.3244C-0.0484564 22.0517 -0.0506446 23.8127 0.143912 25.5541C0.216523 26.2034 0.992961 26.6857 1.65223 26.6857C3.65549 26.6347 5.57758 27.8741 6.38505 29.837C7.18855 31.7975 6.67132 34.0824 5.09855 35.5249C4.60659 35.977 4.54373 36.7324 4.9591 37.2574C6.02717 38.6187 7.2542 39.857 8.597 40.9386C9.12417 41.3632 9.89086 41.3037 10.3478 40.8C11.724 39.2781 14.1862 38.715 16.0815 39.5105C18.0668 40.3413 19.3157 42.3477 19.1938 44.5021C19.1538 45.1791 19.6499 45.7692 20.3221 45.8459C21.2014 45.9488 22.0853 45.9997 22.9719 45.9997C23.8134 45.9997 24.6551 45.9538 25.4968 45.8601C26.1636 45.7865 26.6574 45.2115 26.6349 44.5429C26.5579 42.4112 27.8243 40.4397 29.7824 39.6382C31.6751 38.8652 34.1096 39.4309 35.4785 40.9337C35.9331 41.4284 36.6846 41.4885 37.2142 41.0789C38.59 40.0001 39.8411 38.7623 40.9348 37.4C41.3596 36.8728 41.2993 36.1064 40.7978 35.6518C39.197 34.2028 38.6779 31.8961 39.5093 29.9147C40.2907 28.0493 42.181 26.7969 44.2141 26.7969L44.4985 26.8044C45.1586 26.8579 45.7651 26.3497 45.8449 25.6763C46.048 23.9473 46.0502 22.1884 45.8549 20.4463ZM22.9996 36.2595C15.6762 36.2595 9.73987 30.3232 9.73987 23C9.73987 15.6769 15.6764 9.7405 22.9996 9.7405C30.3227 9.7405 36.2593 15.6769 36.2593 23C36.2593 25.4857 35.574 27.8106 34.3838 29.7988L28.5777 23.9925C28.998 23.0014 29.22 21.927 29.2198 20.8181C29.2198 18.6468 28.3742 16.6055 26.8386 15.0703C25.3034 13.5352 23.2622 12.6897 21.0912 12.6897C20.3667 12.6897 19.6456 12.786 18.9479 12.976C18.6423 13.0593 18.3925 13.3112 18.3111 13.6173C18.228 13.9304 18.3217 14.2513 18.5664 14.4962C18.5664 14.4962 21.4328 17.3847 22.3918 18.3436C22.4923 18.444 22.4921 18.6838 22.478 18.7701L22.469 18.8332C22.3723 19.8875 22.1859 21.1531 22.0322 21.6395C22.0115 21.66 21.992 21.6773 21.9709 21.6984C21.9488 21.7205 21.9285 21.7418 21.9072 21.7636C21.4145 21.9218 20.1294 22.1104 19.0583 22.2063L19.0585 22.2005L19.0104 22.2126C19.0018 22.2136 18.9859 22.2148 18.9648 22.2148C18.849 22.2148 18.6787 22.1824 18.524 22.0278C17.5257 21.0296 14.7717 18.2952 14.7717 18.2952C14.5246 18.049 14.2712 17.9972 14.1023 17.9972C13.7086 17.9972 13.3561 18.2817 13.2451 18.6897C12.4869 21.4953 13.2906 24.5131 15.343 26.5657C16.8786 28.1011 18.9201 28.9465 21.0914 28.9465C22.2003 28.9465 23.2747 28.7247 24.2656 28.3044L30.1347 34.1735C28.0742 35.492 25.6273 36.2595 22.9996 36.2595Z" />
	</symbol>
	<symbol id="arrow-link" viewBox="0 0 53 16" xmlns="http://www.w3.org/2000/svg">
		<path
			d="M52.7071 8.70711C53.0976 8.31658 53.0976 7.68342 52.7071 7.29289L46.3431 0.928932C45.9526 0.538408 45.3195 0.538408 44.9289 0.928932C44.5384 1.31946 44.5384 1.95262 44.9289 2.34315L50.5858 8L44.9289 13.6569C44.5384 14.0474 44.5384 14.6805 44.9289 15.0711C45.3195 15.4616 45.9526 15.4616 46.3431 15.0711L52.7071 8.70711ZM0 9H52V7H0V9Z" />
	</symbol>
	<symbol id="arrow-prev" viewBox="0 0 23 16" xmlns="http://www.w3.org/2000/svg">
		<path
			d="M21.2852 9C21.8374 9 22.2852 8.55228 22.2852 8C22.2852 7.44772 21.8374 7 21.2852 7L21.2852 9ZM0.449017 7.29289C0.0584927 7.68342 0.0584926 8.31658 0.449017 8.7071L6.81298 15.0711C7.2035 15.4616 7.83667 15.4616 8.22719 15.0711C8.61772 14.6805 8.61772 14.0474 8.22719 13.6569L2.57034 8L8.22719 2.34314C8.61772 1.95262 8.61772 1.31946 8.22719 0.928931C7.83667 0.538407 7.2035 0.538407 6.81298 0.928931L0.449017 7.29289ZM21.2852 7L1.15612 7L1.15612 9L21.2852 9L21.2852 7Z" />
	</symbol>
	<symbol id="arrow-next" viewBox="0 0 23 16" xmlns="http://www.w3.org/2000/svg">
		<path d="M1.00024 7C0.447959 7 0.000244141 7.44772 0.000244141 8C0.000244141 8.55228 0.447959 9 1.00024 9V7ZM21.8364 8.70711C22.2269 8.31658 22.2269 7.68342 21.8364 7.29289L15.4724 0.928932C15.0819 0.538408 14.4487 0.538408 14.0582 0.928932C13.6677 1.31946 13.6677 1.95262 14.0582 2.34315L19.7151 8L14.0582 13.6569C13.6677 14.0474 13.6677 14.6805 14.0582 15.0711C14.4487 15.4616 15.0819 15.4616 15.4724 15.0711L21.8364 8.70711ZM1.00024 9H21.1293V7H1.00024V9Z"/>
	</symbol>
</svg>