<?xml version="1.0" encoding="utf-8"?><svg viewBox="0 0 262 176" xmlns="http://www.w3.org/2000/svg" xmlns:xlink="http://www.w3.org/1999/xlink"><style>:root>svg{display:none}:root>svg:target{display:block}</style><svg viewBox="0 0 262 176" id="icons--dot" xmlns="http://www.w3.org/2000/svg"><ellipse opacity=".3" cx="4.5" cy="4" rx="4.5" ry="4"/><ellipse opacity=".3" cx="40.5" cy="4" rx="4.5" ry="4"/><circle opacity=".3" cx="76" cy="4" r="4"/><circle opacity=".3" cx="112" cy="4" r="4"/><circle opacity=".3" cx="148" cy="4" r="4"/><circle opacity=".3" cx="184" cy="4" r="4"/><circle opacity=".3" cx="220" cy="4" r="4"/><circle opacity=".3" cx="256" cy="4" r="4"/><ellipse opacity=".3" cx="4.5" cy="28" rx="4.5" ry="4"/><ellipse opacity=".3" cx="40.5" cy="28" rx="4.5" ry="4"/><circle opacity=".3" cx="76" cy="28" r="4"/><circle opacity=".3" cx="112" cy="28" r="4"/><circle opacity=".3" cx="148" cy="28" r="4"/><circle opacity=".3" cx="184" cy="28" r="4"/><circle opacity=".3" cx="220" cy="28" r="4"/><circle opacity=".3" cx="256" cy="28" r="4"/><ellipse opacity=".3" cx="4.5" cy="52" rx="4.5" ry="4"/><ellipse opacity=".3" cx="40.5" cy="52" rx="4.5" ry="4"/><circle opacity=".3" cx="76" cy="52" r="4"/><circle opacity=".3" cx="112" cy="52" r="4"/><circle opacity=".3" cx="148" cy="52" r="4"/><circle opacity=".3" cx="184" cy="52" r="4"/><circle opacity=".3" cx="220" cy="52" r="4"/><circle opacity=".3" cx="256" cy="52" r="4"/><ellipse opacity=".3" cx="4.5" cy="76" rx="4.5" ry="4"/><ellipse opacity=".3" cx="40.5" cy="76" rx="4.5" ry="4"/><circle opacity=".3" cx="76" cy="76" r="4"/><circle opacity=".3" cx="112" cy="76" r="4"/><circle opacity=".3" cx="148" cy="76" r="4"/><circle opacity=".3" cx="184" cy="76" r="4"/><circle opacity=".3" cx="220" cy="76" r="4"/><circle opacity=".3" cx="256" cy="76" r="4"/><ellipse opacity=".3" cx="4.5" cy="100" rx="4.5" ry="4"/><ellipse opacity=".3" cx="40.5" cy="100" rx="4.5" ry="4"/><circle opacity=".3" cx="76" cy="100" r="4"/><circle opacity=".3" cx="112" cy="100" r="4"/><circle opacity=".3" cx="148" cy="100" r="4"/><circle opacity=".3" cx="184" cy="100" r="4"/><circle opacity=".3" cx="220" cy="100" r="4"/><circle opacity=".3" cx="256" cy="100" r="4"/><ellipse opacity=".3" cx="4.5" cy="124" rx="4.5" ry="4"/><ellipse opacity=".3" cx="40.5" cy="124" rx="4.5" ry="4"/><circle opacity=".3" cx="76" cy="124" r="4"/><circle opacity=".3" cx="112" cy="124" r="4"/><circle opacity=".3" cx="148" cy="124" r="4"/><circle opacity=".3" cx="184" cy="124" r="4"/><circle opacity=".3" cx="220" cy="124" r="4"/><circle opacity=".3" cx="256" cy="124" r="4"/><ellipse opacity=".3" cx="4.5" cy="148" rx="4.5" ry="4"/><ellipse opacity=".3" cx="41.5" cy="148" rx="4.5" ry="4"/><circle opacity=".3" cx="78" cy="148" r="4"/><circle opacity=".3" cx="114" cy="148" r="4"/><circle opacity=".3" cx="150" cy="148" r="4"/><circle opacity=".3" cx="186" cy="148" r="4"/><circle opacity=".3" cx="222" cy="148" r="4"/><circle opacity=".3" cx="258" cy="148" r="4"/><ellipse opacity=".3" cx="4.5" cy="172" rx="4.5" ry="4"/><ellipse opacity=".3" cx="41.5" cy="172" rx="4.5" ry="4"/><circle opacity=".3" cx="78" cy="172" r="4"/><circle opacity=".3" cx="114" cy="172" r="4"/><circle opacity=".3" cx="150" cy="172" r="4"/><circle opacity=".3" cx="186" cy="172" r="4"/><circle opacity=".3" cx="222" cy="172" r="4"/><circle opacity=".3" cx="258" cy="172" r="4"/></svg><svg viewBox="0 0 262 176" id="icons--dotted-geen" xmlns="http://www.w3.org/2000/svg"><ellipse opacity=".3" cx="4.5" cy="4" rx="4.5" ry="4"/><ellipse opacity=".3" cx="40.5" cy="4" rx="4.5" ry="4"/><circle opacity=".3" cx="76" cy="4" r="4"/><circle opacity=".3" cx="112" cy="4" r="4"/><circle opacity=".3" cx="148" cy="4" r="4"/><circle opacity=".3" cx="184" cy="4" r="4"/><circle opacity=".3" cx="220" cy="4" r="4"/><circle opacity=".3" cx="256" cy="4" r="4"/><ellipse opacity=".3" cx="4.5" cy="28" rx="4.5" ry="4"/><ellipse opacity=".3" cx="40.5" cy="28" rx="4.5" ry="4"/><circle opacity=".3" cx="76" cy="28" r="4"/><circle opacity=".3" cx="112" cy="28" r="4"/><circle opacity=".3" cx="148" cy="28" r="4"/><circle opacity=".3" cx="184" cy="28" r="4"/><circle opacity=".3" cx="220" cy="28" r="4"/><circle opacity=".3" cx="256" cy="28" r="4"/><ellipse opacity=".3" cx="4.5" cy="52" rx="4.5" ry="4"/><ellipse opacity=".3" cx="40.5" cy="52" rx="4.5" ry="4"/><circle opacity=".3" cx="76" cy="52" r="4"/><circle opacity=".3" cx="112" cy="52" r="4"/><circle opacity=".3" cx="148" cy="52" r="4"/><circle opacity=".3" cx="184" cy="52" r="4"/><circle opacity=".3" cx="220" cy="52" r="4"/><circle opacity=".3" cx="256" cy="52" r="4"/><ellipse opacity=".3" cx="4.5" cy="76" rx="4.5" ry="4"/><ellipse opacity=".3" cx="40.5" cy="76" rx="4.5" ry="4"/><circle opacity=".3" cx="76" cy="76" r="4"/><circle opacity=".3" cx="112" cy="76" r="4"/><circle opacity=".3" cx="148" cy="76" r="4"/><circle opacity=".3" cx="184" cy="76" r="4"/><circle opacity=".3" cx="220" cy="76" r="4"/><circle opacity=".3" cx="256" cy="76" r="4"/><ellipse opacity=".3" cx="4.5" cy="100" rx="4.5" ry="4"/><ellipse opacity=".3" cx="40.5" cy="100" rx="4.5" ry="4"/><circle opacity=".3" cx="76" cy="100" r="4"/><circle opacity=".3" cx="112" cy="100" r="4"/><circle opacity=".3" cx="148" cy="100" r="4"/><circle opacity=".3" cx="184" cy="100" r="4"/><circle opacity=".3" cx="220" cy="100" r="4"/><circle opacity=".3" cx="256" cy="100" r="4"/><ellipse opacity=".3" cx="4.5" cy="124" rx="4.5" ry="4"/><ellipse opacity=".3" cx="40.5" cy="124" rx="4.5" ry="4"/><circle opacity=".3" cx="76" cy="124" r="4"/><circle opacity=".3" cx="112" cy="124" r="4"/><circle opacity=".3" cx="148" cy="124" r="4"/><circle opacity=".3" cx="184" cy="124" r="4"/><circle opacity=".3" cx="220" cy="124" r="4"/><circle opacity=".3" cx="256" cy="124" r="4"/><ellipse opacity=".3" cx="4.5" cy="148" rx="4.5" ry="4"/><ellipse opacity=".3" cx="41.5" cy="148" rx="4.5" ry="4"/><circle opacity=".3" cx="78" cy="148" r="4"/><circle opacity=".3" cx="114" cy="148" r="4"/><circle opacity=".3" cx="150" cy="148" r="4"/><circle opacity=".3" cx="186" cy="148" r="4"/><circle opacity=".3" cx="222" cy="148" r="4"/><circle opacity=".3" cx="258" cy="148" r="4"/><ellipse opacity=".3" cx="4.5" cy="172" rx="4.5" ry="4"/><ellipse opacity=".3" cx="41.5" cy="172" rx="4.5" ry="4"/><circle opacity=".3" cx="78" cy="172" r="4"/><circle opacity=".3" cx="114" cy="172" r="4"/><circle opacity=".3" cx="150" cy="172" r="4"/><circle opacity=".3" cx="186" cy="172" r="4"/><circle opacity=".3" cx="222" cy="172" r="4"/><circle opacity=".3" cx="258" cy="172" r="4"/></svg><svg viewBox="0 0 260 176" id="icons--dotted-gray" xmlns="http://www.w3.org/2000/svg"><ellipse opacity=".3" cx="4.5" cy="4" rx="4.5" ry="4"/><ellipse opacity=".3" cx="40.5" cy="4" rx="4.5" ry="4"/><circle opacity=".3" cx="76" cy="4" r="4"/><circle opacity=".3" cx="112" cy="4" r="4"/><circle opacity=".3" cx="148" cy="4" r="4"/><circle opacity=".3" cx="184" cy="4" r="4"/><circle opacity=".3" cx="220" cy="4" r="4"/><circle opacity=".3" cx="256" cy="4" r="4"/><ellipse opacity=".3" cx="4.5" cy="28" rx="4.5" ry="4"/><ellipse opacity=".3" cx="40.5" cy="28" rx="4.5" ry="4"/><circle opacity=".3" cx="76" cy="28" r="4"/><circle opacity=".3" cx="112" cy="28" r="4"/><circle opacity=".3" cx="148" cy="28" r="4"/><circle opacity=".3" cx="184" cy="28" r="4"/><circle opacity=".3" cx="220" cy="28" r="4"/><circle opacity=".3" cx="256" cy="28" r="4"/><ellipse opacity=".3" cx="4.5" cy="52" rx="4.5" ry="4"/><ellipse opacity=".3" cx="40.5" cy="52" rx="4.5" ry="4"/><circle opacity=".3" cx="76" cy="52" r="4"/><circle opacity=".3" cx="112" cy="52" r="4"/><circle opacity=".3" cx="148" cy="52" r="4"/><circle opacity=".3" cx="184" cy="52" r="4"/><circle opacity=".3" cx="220" cy="52" r="4"/><circle opacity=".3" cx="256" cy="52" r="4"/><ellipse opacity=".3" cx="4.5" cy="76" rx="4.5" ry="4"/><ellipse opacity=".3" cx="40.5" cy="76" rx="4.5" ry="4"/><circle opacity=".3" cx="76" cy="76" r="4"/><circle opacity=".3" cx="112" cy="76" r="4"/><circle opacity=".3" cx="148" cy="76" r="4"/><circle opacity=".3" cx="184" cy="76" r="4"/><circle opacity=".3" cx="220" cy="76" r="4"/><circle opacity=".3" cx="256" cy="76" r="4"/><ellipse opacity=".3" cx="4.5" cy="100" rx="4.5" ry="4"/><ellipse opacity=".3" cx="40.5" cy="100" rx="4.5" ry="4"/><circle opacity=".3" cx="76" cy="100" r="4"/><circle opacity=".3" cx="112" cy="100" r="4"/><circle opacity=".3" cx="148" cy="100" r="4"/><circle opacity=".3" cx="184" cy="100" r="4"/><circle opacity=".3" cx="220" cy="100" r="4"/><circle opacity=".3" cx="256" cy="100" r="4"/><ellipse opacity=".3" cx="4.5" cy="124" rx="4.5" ry="4"/><ellipse opacity=".3" cx="40.5" cy="124" rx="4.5" ry="4"/><circle opacity=".3" cx="76" cy="124" r="4"/><circle opacity=".3" cx="112" cy="124" r="4"/><circle opacity=".3" cx="148" cy="124" r="4"/><circle opacity=".3" cx="184" cy="124" r="4"/><circle opacity=".3" cx="220" cy="124" r="4"/><circle opacity=".3" cx="256" cy="124" r="4"/><ellipse opacity=".3" cx="4.5" cy="148" rx="4.5" ry="4"/><ellipse opacity=".3" cx="40.5" cy="148" rx="4.5" ry="4"/><circle opacity=".3" cx="76" cy="148" r="4"/><circle opacity=".3" cx="112" cy="148" r="4"/><circle opacity=".3" cx="148" cy="148" r="4"/><circle opacity=".3" cx="184" cy="148" r="4"/><circle opacity=".3" cx="220" cy="148" r="4"/><circle opacity=".3" cx="256" cy="148" r="4"/><ellipse opacity=".3" cx="4.5" cy="172" rx="4.5" ry="4"/><ellipse opacity=".3" cx="40.5" cy="172" rx="4.5" ry="4"/><circle opacity=".3" cx="76" cy="172" r="4"/><circle opacity=".3" cx="112" cy="172" r="4"/><circle opacity=".3" cx="148" cy="172" r="4"/><circle opacity=".3" cx="184" cy="172" r="4"/><circle opacity=".3" cx="220" cy="172" r="4"/><circle opacity=".3" cx="256" cy="172" r="4"/></svg><svg viewBox="0 0 262 176" id="icons--dotted-green" xmlns="http://www.w3.org/2000/svg"><ellipse opacity=".3" cx="4.5" cy="4" rx="4.5" ry="4"/><ellipse opacity=".3" cx="40.5" cy="4" rx="4.5" ry="4"/><circle opacity=".3" cx="76" cy="4" r="4"/><circle opacity=".3" cx="112" cy="4" r="4"/><circle opacity=".3" cx="148" cy="4" r="4"/><circle opacity=".3" cx="184" cy="4" r="4"/><circle opacity=".3" cx="220" cy="4" r="4"/><circle opacity=".3" cx="256" cy="4" r="4"/><ellipse opacity=".3" cx="4.5" cy="28" rx="4.5" ry="4"/><ellipse opacity=".3" cx="40.5" cy="28" rx="4.5" ry="4"/><circle opacity=".3" cx="76" cy="28" r="4"/><circle opacity=".3" cx="112" cy="28" r="4"/><circle opacity=".3" cx="148" cy="28" r="4"/><circle opacity=".3" cx="184" cy="28" r="4"/><circle opacity=".3" cx="220" cy="28" r="4"/><circle opacity=".3" cx="256" cy="28" r="4"/><ellipse opacity=".3" cx="4.5" cy="52" rx="4.5" ry="4"/><ellipse opacity=".3" cx="40.5" cy="52" rx="4.5" ry="4"/><circle opacity=".3" cx="76" cy="52" r="4"/><circle opacity=".3" cx="112" cy="52" r="4"/><circle opacity=".3" cx="148" cy="52" r="4"/><circle opacity=".3" cx="184" cy="52" r="4"/><circle opacity=".3" cx="220" cy="52" r="4"/><circle opacity=".3" cx="256" cy="52" r="4"/><ellipse opacity=".3" cx="4.5" cy="76" rx="4.5" ry="4"/><ellipse opacity=".3" cx="40.5" cy="76" rx="4.5" ry="4"/><circle opacity=".3" cx="76" cy="76" r="4"/><circle opacity=".3" cx="112" cy="76" r="4"/><circle opacity=".3" cx="148" cy="76" r="4"/><circle opacity=".3" cx="184" cy="76" r="4"/><circle opacity=".3" cx="220" cy="76" r="4"/><circle opacity=".3" cx="256" cy="76" r="4"/><ellipse opacity=".3" cx="4.5" cy="100" rx="4.5" ry="4"/><ellipse opacity=".3" cx="40.5" cy="100" rx="4.5" ry="4"/><circle opacity=".3" cx="76" cy="100" r="4"/><circle opacity=".3" cx="112" cy="100" r="4"/><circle opacity=".3" cx="148" cy="100" r="4"/><circle opacity=".3" cx="184" cy="100" r="4"/><circle opacity=".3" cx="220" cy="100" r="4"/><circle opacity=".3" cx="256" cy="100" r="4"/><ellipse opacity=".3" cx="4.5" cy="124" rx="4.5" ry="4"/><ellipse opacity=".3" cx="40.5" cy="124" rx="4.5" ry="4"/><circle opacity=".3" cx="76" cy="124" r="4"/><circle opacity=".3" cx="112" cy="124" r="4"/><circle opacity=".3" cx="148" cy="124" r="4"/><circle opacity=".3" cx="184" cy="124" r="4"/><circle opacity=".3" cx="220" cy="124" r="4"/><circle opacity=".3" cx="256" cy="124" r="4"/><ellipse opacity=".3" cx="4.5" cy="148" rx="4.5" ry="4"/><ellipse opacity=".3" cx="41.5" cy="148" rx="4.5" ry="4"/><circle opacity=".3" cx="78" cy="148" r="4"/><circle opacity=".3" cx="114" cy="148" r="4"/><circle opacity=".3" cx="150" cy="148" r="4"/><circle opacity=".3" cx="186" cy="148" r="4"/><circle opacity=".3" cx="222" cy="148" r="4"/><circle opacity=".3" cx="258" cy="148" r="4"/><ellipse opacity=".3" cx="4.5" cy="172" rx="4.5" ry="4"/><ellipse opacity=".3" cx="41.5" cy="172" rx="4.5" ry="4"/><circle opacity=".3" cx="78" cy="172" r="4"/><circle opacity=".3" cx="114" cy="172" r="4"/><circle opacity=".3" cx="150" cy="172" r="4"/><circle opacity=".3" cx="186" cy="172" r="4"/><circle opacity=".3" cx="222" cy="172" r="4"/><circle opacity=".3" cx="258" cy="172" r="4"/></svg><svg viewBox="0 0 262 176" id="icons--dotted-yellow" xmlns="http://www.w3.org/2000/svg"><ellipse opacity=".3" cx="4.5" cy="4" rx="4.5" ry="4"/><ellipse opacity=".3" cx="40.5" cy="4" rx="4.5" ry="4"/><circle opacity=".3" cx="76" cy="4" r="4"/><circle opacity=".3" cx="112" cy="4" r="4"/><circle opacity=".3" cx="148" cy="4" r="4"/><circle opacity=".3" cx="184" cy="4" r="4"/><circle opacity=".3" cx="220" cy="4" r="4"/><circle opacity=".3" cx="256" cy="4" r="4"/><ellipse opacity=".3" cx="4.5" cy="28" rx="4.5" ry="4"/><ellipse opacity=".3" cx="40.5" cy="28" rx="4.5" ry="4"/><circle opacity=".3" cx="76" cy="28" r="4"/><circle opacity=".3" cx="112" cy="28" r="4"/><circle opacity=".3" cx="148" cy="28" r="4"/><circle opacity=".3" cx="184" cy="28" r="4"/><circle opacity=".3" cx="220" cy="28" r="4"/><circle opacity=".3" cx="256" cy="28" r="4"/><ellipse opacity=".3" cx="4.5" cy="52" rx="4.5" ry="4"/><ellipse opacity=".3" cx="40.5" cy="52" rx="4.5" ry="4"/><circle opacity=".3" cx="76" cy="52" r="4"/><circle opacity=".3" cx="112" cy="52" r="4"/><circle opacity=".3" cx="148" cy="52" r="4"/><circle opacity=".3" cx="184" cy="52" r="4"/><circle opacity=".3" cx="220" cy="52" r="4"/><circle opacity=".3" cx="256" cy="52" r="4"/><ellipse opacity=".3" cx="4.5" cy="76" rx="4.5" ry="4"/><ellipse opacity=".3" cx="40.5" cy="76" rx="4.5" ry="4"/><circle opacity=".3" cx="76" cy="76" r="4"/><circle opacity=".3" cx="112" cy="76" r="4"/><circle opacity=".3" cx="148" cy="76" r="4"/><circle opacity=".3" cx="184" cy="76" r="4"/><circle opacity=".3" cx="220" cy="76" r="4"/><circle opacity=".3" cx="256" cy="76" r="4"/><ellipse opacity=".3" cx="4.5" cy="100" rx="4.5" ry="4"/><ellipse opacity=".3" cx="40.5" cy="100" rx="4.5" ry="4"/><circle opacity=".3" cx="76" cy="100" r="4"/><circle opacity=".3" cx="112" cy="100" r="4"/><circle opacity=".3" cx="148" cy="100" r="4"/><circle opacity=".3" cx="184" cy="100" r="4"/><circle opacity=".3" cx="220" cy="100" r="4"/><circle opacity=".3" cx="256" cy="100" r="4"/><ellipse opacity=".3" cx="4.5" cy="124" rx="4.5" ry="4"/><ellipse opacity=".3" cx="40.5" cy="124" rx="4.5" ry="4"/><circle opacity=".3" cx="76" cy="124" r="4"/><circle opacity=".3" cx="112" cy="124" r="4"/><circle opacity=".3" cx="148" cy="124" r="4"/><circle opacity=".3" cx="184" cy="124" r="4"/><circle opacity=".3" cx="220" cy="124" r="4"/><circle opacity=".3" cx="256" cy="124" r="4"/><ellipse opacity=".3" cx="4.5" cy="148" rx="4.5" ry="4"/><ellipse opacity=".3" cx="41.5" cy="148" rx="4.5" ry="4"/><circle opacity=".3" cx="78" cy="148" r="4"/><circle opacity=".3" cx="114" cy="148" r="4"/><circle opacity=".3" cx="150" cy="148" r="4"/><circle opacity=".3" cx="186" cy="148" r="4"/><circle opacity=".3" cx="222" cy="148" r="4"/><circle opacity=".3" cx="258" cy="148" r="4"/><ellipse opacity=".3" cx="4.5" cy="172" rx="4.5" ry="4"/><ellipse opacity=".3" cx="41.5" cy="172" rx="4.5" ry="4"/><circle opacity=".3" cx="78" cy="172" r="4"/><circle opacity=".3" cx="114" cy="172" r="4"/><circle opacity=".3" cx="150" cy="172" r="4"/><circle opacity=".3" cx="186" cy="172" r="4"/><circle opacity=".3" cx="222" cy="172" r="4"/><circle opacity=".3" cx="258" cy="172" r="4"/><ellipse opacity=".3" cx="4.5" cy="4" rx="4.5" ry="4"/><ellipse opacity=".3" cx="40.5" cy="4" rx="4.5" ry="4"/><circle opacity=".3" cx="76" cy="4" r="4"/><circle opacity=".3" cx="112" cy="4" r="4"/><circle opacity=".3" cx="148" cy="4" r="4"/><circle opacity=".3" cx="184" cy="4" r="4"/><circle opacity=".3" cx="220" cy="4" r="4"/><circle opacity=".3" cx="256" cy="4" r="4"/><ellipse opacity=".3" cx="4.5" cy="28" rx="4.5" ry="4"/><ellipse opacity=".3" cx="40.5" cy="28" rx="4.5" ry="4"/><circle opacity=".3" cx="76" cy="28" r="4"/><circle opacity=".3" cx="112" cy="28" r="4"/><circle opacity=".3" cx="148" cy="28" r="4"/><circle opacity=".3" cx="184" cy="28" r="4"/><circle opacity=".3" cx="220" cy="28" r="4"/><circle opacity=".3" cx="256" cy="28" r="4"/><ellipse opacity=".3" cx="4.5" cy="52" rx="4.5" ry="4"/><ellipse opacity=".3" cx="40.5" cy="52" rx="4.5" ry="4"/><circle opacity=".3" cx="76" cy="52" r="4"/><circle opacity=".3" cx="112" cy="52" r="4"/><circle opacity=".3" cx="148" cy="52" r="4"/><circle opacity=".3" cx="184" cy="52" r="4"/><circle opacity=".3" cx="220" cy="52" r="4"/><circle opacity=".3" cx="256" cy="52" r="4"/><ellipse opacity=".3" cx="4.5" cy="76" rx="4.5" ry="4"/><ellipse opacity=".3" cx="40.5" cy="76" rx="4.5" ry="4"/><circle opacity=".3" cx="76" cy="76" r="4"/><circle opacity=".3" cx="112" cy="76" r="4"/><circle opacity=".3" cx="148" cy="76" r="4"/><circle opacity=".3" cx="184" cy="76" r="4"/><circle opacity=".3" cx="220" cy="76" r="4"/><circle opacity=".3" cx="256" cy="76" r="4"/><ellipse opacity=".3" cx="4.5" cy="100" rx="4.5" ry="4"/><ellipse opacity=".3" cx="40.5" cy="100" rx="4.5" ry="4"/><circle opacity=".3" cx="76" cy="100" r="4"/><circle opacity=".3" cx="112" cy="100" r="4"/><circle opacity=".3" cx="148" cy="100" r="4"/><circle opacity=".3" cx="184" cy="100" r="4"/><circle opacity=".3" cx="220" cy="100" r="4"/><circle opacity=".3" cx="256" cy="100" r="4"/><ellipse opacity=".3" cx="4.5" cy="124" rx="4.5" ry="4"/><ellipse opacity=".3" cx="40.5" cy="124" rx="4.5" ry="4"/><circle opacity=".3" cx="76" cy="124" r="4"/><circle opacity=".3" cx="112" cy="124" r="4"/><circle opacity=".3" cx="148" cy="124" r="4"/><circle opacity=".3" cx="184" cy="124" r="4"/><circle opacity=".3" cx="220" cy="124" r="4"/><circle opacity=".3" cx="256" cy="124" r="4"/><ellipse opacity=".3" cx="4.5" cy="148" rx="4.5" ry="4"/><ellipse opacity=".3" cx="41.5" cy="148" rx="4.5" ry="4"/><circle opacity=".3" cx="78" cy="148" r="4"/><circle opacity=".3" cx="114" cy="148" r="4"/><circle opacity=".3" cx="150" cy="148" r="4"/><circle opacity=".3" cx="186" cy="148" r="4"/><circle opacity=".3" cx="222" cy="148" r="4"/><circle opacity=".3" cx="258" cy="148" r="4"/><ellipse opacity=".3" cx="4.5" cy="172" rx="4.5" ry="4"/><ellipse opacity=".3" cx="41.5" cy="172" rx="4.5" ry="4"/><circle opacity=".3" cx="78" cy="172" r="4"/><circle opacity=".3" cx="114" cy="172" r="4"/><circle opacity=".3" cx="150" cy="172" r="4"/><circle opacity=".3" cx="186" cy="172" r="4"/><circle opacity=".3" cx="222" cy="172" r="4"/><circle opacity=".3" cx="258" cy="172" r="4"/></svg><svg viewBox="0 0 25 31" id="icons--return" xmlns="http://www.w3.org/2000/svg"><path d="M6.111 30 1 24.889l5.111-5.111"/><path d="M24 17.222v2.556a5.111 5.111 0 0 1-5.111 5.11H1M18.889 1.889 24 7l-5.111 5.111"/><path d="M1 14.667V12.11A5.111 5.111 0 0 1 6.111 7H24"/></svg><svg viewBox="0 0 35 29" id="icons--shipping" xmlns="http://www.w3.org/2000/svg"><path d="M26.66 27a3.523 3.523 0 1 0-.001-7.045 3.523 3.523 0 0 0 0 7.045zM8.34 27a3.523 3.523 0 1 0 0-7.045 3.523 3.523 0 0 0 0 7.045z"/><path d="M23.136 8.682h5.637L33 12.909v7.046h-9.864V8.682zm0-7.046H2v18.319h21.136V1.636z"/></svg><svg viewBox="0 0 28 30" id="icons--shop-bag" xmlns="http://www.w3.org/2000/svg"><path d="M6 2 2 7.333V26a2.667 2.667 0 0 0 2.667 2.667h18.666A2.667 2.667 0 0 0 26 26V7.333L22 2H6zm13.333 10.667a5.333 5.333 0 1 1-10.666 0M2 7.333h24"/></svg><svg viewBox="0 0 29 29" id="icons--support" xmlns="http://www.w3.org/2000/svg"><path d="M14.5 28C21.956 28 28 21.956 28 14.5S21.956 1 14.5 1 1 7.044 1 14.5 7.044 28 14.5 28z"/><path d="M14.5 19.9a5.4 5.4 0 1 0 0-10.8 5.4 5.4 0 0 0 0 10.8zm3.82-1.58 5.724 5.724m-19.088 0 5.724-5.724m7.64-7.64 5.724-5.724M18.32 10.68l4.766-4.766m-18.13-.958 5.724 5.724"/></svg><svg viewBox="0 0 81 26" id="logo" xmlns="http://www.w3.org/2000/svg"><path d="M.557 25V1.727h14.432V4.75H4.069v7.09h9.886v3.012H4.067V25H.557zm28.44-7.239V7.545h3.41V25h-3.342v-3.023h-.181c-.402.932-1.046 1.709-1.932 2.33-.88.614-1.974.92-3.284.92-1.122 0-2.114-.246-2.978-.738-.856-.5-1.53-1.239-2.022-2.216-.485-.977-.728-2.186-.728-3.625V7.545h3.398V18.24c0 1.189.33 2.136.989 2.84.659.705 1.515 1.057 2.568 1.057.636 0 1.269-.159 1.898-.477.636-.318 1.163-.8 1.58-1.443.423-.644.632-1.462.624-2.455zM36.972 25V7.545h3.284v2.773h.181a4.22 4.22 0 0 1 1.682-2.216c.81-.545 1.728-.818 2.75-.818a14.526 14.526 0 0 1 1.444.08v3.25a6.119 6.119 0 0 0-.728-.125 6.943 6.943 0 0 0-1.045-.08c-.803 0-1.52.17-2.148.511-.621.334-1.114.8-1.477 1.398-.364.591-.546 1.265-.546 2.023V25h-3.397zM52.65 14.636V25h-3.398V7.545h3.261v2.841h.216a4.989 4.989 0 0 1 1.887-2.227c.863-.56 1.95-.84 3.26-.84 1.19 0 2.232.25 3.126.75.894.492 1.587 1.226 2.08 2.204.492.977.738 2.185.738 3.625V25h-3.398V14.307c0-1.265-.33-2.254-.988-2.966-.66-.72-1.565-1.08-2.716-1.08-.788 0-1.489.17-2.102.512-.607.34-1.088.84-1.444 1.5-.348.651-.522 1.44-.522 2.363zM68.378 25V7.545h3.398V25h-3.398zm1.716-20.148a2.16 2.16 0 0 1-1.523-.59c-.417-.402-.625-.88-.625-1.432 0-.561.208-1.038.625-1.432a2.138 2.138 0 0 1 1.523-.603c.59 0 1.094.201 1.511.603.424.394.636.87.636 1.432 0 .553-.212 1.03-.636 1.431a2.12 2.12 0 0 1-1.511.591z"/><path d="M78.585 25.216c-.621 0-1.155-.22-1.602-.66a2.2 2.2 0 0 1-.67-1.613c0-.621.223-1.151.67-1.59a2.183 2.183 0 0 1 1.602-.671c.621 0 1.156.223 1.603.67.447.44.67.97.67 1.591 0 .417-.106.8-.318 1.148-.205.34-.478.613-.818.818-.341.205-.72.307-1.137.307z" fill-opacity=".28"/></svg></svg>