<svg width="112" height="112" viewBox="0 0 112 112" fill="none" xmlns="http://www.w3.org/2000/svg">
<path d="M13.384 40V14.8H17.236L28.252 33.196H26.236L37.072 14.8H40.924L40.96 40H36.532L36.496 21.748H37.432L28.216 37.12H26.128L16.768 21.748H17.848V40H13.384Z" fill="black"/>
<path d="M45.82 40L57.16 14.8H61.768L73.144 40H68.248L58.492 17.284H60.364L50.644 40H45.82ZM51.04 34.168L52.3 30.496H65.908L67.168 34.168H51.04Z" fill="black"/>
<path d="M76.324 40L86.944 25.384V28.912L76.828 14.8H82.12L89.644 25.24L87.484 25.276L94.936 14.8H100.012L89.968 28.66V25.276L100.66 40H95.26L87.34 28.912H89.464L81.652 40H76.324Z" fill="black"/>
<line x1="13" y1="55" x2="100" y2="55" stroke="black" stroke-width="4"/>
<path d="M18.06 91.06L17.808 85.516L31.02 71.8H36.276L25.296 83.464L22.704 86.308L18.06 91.06ZM13.884 97V71.8H18.564V97H13.884ZM31.452 97L21.804 85.516L24.9 82.096L36.924 97H31.452Z" fill="black"/>
<path d="M57.692 97.36C55.724 97.36 53.912 97.036 52.256 96.388C50.6 95.74 49.16 94.84 47.936 93.688C46.712 92.512 45.764 91.144 45.092 89.584C44.42 88 44.084 86.272 44.084 84.4C44.084 82.528 44.42 80.812 45.092 79.252C45.764 77.668 46.712 76.3 47.936 75.148C49.16 73.972 50.6 73.06 52.256 72.412C53.912 71.764 55.712 71.44 57.656 71.44C59.624 71.44 61.424 71.764 63.056 72.412C64.712 73.06 66.152 73.972 67.376 75.148C68.6 76.3 69.548 77.668 70.22 79.252C70.892 80.812 71.228 82.528 71.228 84.4C71.228 86.272 70.892 88 70.22 89.584C69.548 91.168 68.6 92.536 67.376 93.688C66.152 94.84 64.712 95.74 63.056 96.388C61.424 97.036 59.636 97.36 57.692 97.36ZM57.656 93.256C58.928 93.256 60.104 93.04 61.184 92.608C62.264 92.176 63.2 91.564 63.992 90.772C64.784 89.956 65.396 89.02 65.828 87.964C66.284 86.884 66.512 85.696 66.512 84.4C66.512 83.104 66.284 81.928 65.828 80.872C65.396 79.792 64.784 78.856 63.992 78.064C63.2 77.248 62.264 76.624 61.184 76.192C60.104 75.76 58.928 75.544 57.656 75.544C56.384 75.544 55.208 75.76 54.128 76.192C53.072 76.624 52.136 77.248 51.32 78.064C50.528 78.856 49.904 79.792 49.448 80.872C49.016 81.928 48.8 83.104 48.8 84.4C48.8 85.672 49.016 86.848 49.448 87.928C49.904 89.008 50.528 89.956 51.32 90.772C52.112 91.564 53.048 92.176 54.128 92.608C55.208 93.04 56.384 93.256 57.656 93.256Z" fill="black"/>
<path d="M86.996 97V75.76H78.644V71.8H100.028V75.76H91.676V97H86.996Z" fill="black"/>
<rect x="2" y="2" width="108" height="108" stroke="black" stroke-width="4"/>
</svg>
