<svg width="112" height="112" fill="none" xmlns="http://www.w3.org/2000/svg"><path d="M13.384 40V14.8h3.852l11.016 18.396h-2.016L37.072 14.8h3.852L40.96 40h-4.428l-.036-18.252h.936L28.216 37.12h-2.088l-9.36-15.372h1.08V40h-4.464zm32.436 0l11.34-25.2h4.608L73.144 40h-4.896l-9.756-22.716h1.872L50.644 40H45.82zm5.22-5.832l1.26-3.672h13.608l1.26 3.672H51.04zM76.324 40l10.62-14.616v3.528L76.828 14.8h5.292l7.524 10.44-2.16.036L94.936 14.8h5.076L89.968 28.66v-3.384L100.66 40h-5.4l-7.92-11.088h2.124L81.652 40h-5.328z" fill="#000"/><path stroke="#000" stroke-width="4" d="M13 55h87"/><path d="M18.06 91.06l-.252-5.544L31.02 71.8h5.256l-10.98 11.664-2.592 2.844-4.644 4.752zM13.884 97V71.8h4.68V97h-4.68zm17.568 0l-9.648-11.484 3.096-3.42L36.924 97h-5.472zm26.24.36c-1.968 0-3.78-.324-5.436-.972-1.656-.648-3.096-1.548-4.32-2.7a12.485 12.485 0 01-2.844-4.104C44.42 88 44.084 86.272 44.084 84.4c0-1.872.336-3.588 1.008-5.148a12.007 12.007 0 012.844-4.104c1.224-1.176 2.664-2.088 4.32-2.736 1.656-.648 3.456-.972 5.4-.972 1.968 0 3.768.324 5.4.972 1.656.648 3.096 1.56 4.32 2.736a12.007 12.007 0 012.844 4.104c.672 1.56 1.008 3.276 1.008 5.148 0 1.872-.336 3.6-1.008 5.184a12.007 12.007 0 01-2.844 4.104c-1.224 1.152-2.664 2.052-4.32 2.7-1.632.648-3.42.972-5.364.972zm-.036-4.104c1.272 0 2.448-.216 3.528-.648a8.26 8.26 0 002.808-1.836 8.753 8.753 0 001.836-2.808c.456-1.08.684-2.268.684-3.564 0-1.296-.228-2.472-.684-3.528a8.26 8.26 0 00-1.836-2.808 8.011 8.011 0 00-2.808-1.872c-1.08-.432-2.256-.648-3.528-.648-1.272 0-2.448.216-3.528.648a8.472 8.472 0 00-2.808 1.872 8.723 8.723 0 00-1.872 2.808c-.432 1.056-.648 2.232-.648 3.528 0 1.272.216 2.448.648 3.528a9.154 9.154 0 001.872 2.844 8.26 8.26 0 002.808 1.836c1.08.432 2.256.648 3.528.648zM86.996 97V75.76h-8.352V71.8h21.384v3.96h-8.352V97h-4.68z" fill="#000"/><path stroke="#000" stroke-width="4" d="M2 2h108v108H2z"/></svg>