<?xml version="1.0" encoding="utf-8"?><svg viewBox="0 0 262 176" xmlns="http://www.w3.org/2000/svg" xmlns:xlink="http://www.w3.org/1999/xlink"><style>:root>svg{display:none}:root>svg:target{display:block}</style><svg viewBox="0 0 112 112" id="design" xmlns="http://www.w3.org/2000/svg"><path d="M13.384 40V14.8h3.852l11.016 18.396h-2.016L37.072 14.8h3.852L40.96 40h-4.428l-.036-18.252h.936L28.216 37.12h-2.088l-9.36-15.372h1.08V40h-4.464zm32.436 0 11.34-25.2h4.608L73.144 40h-4.896l-9.756-22.716h1.872L50.644 40H45.82zm5.22-5.832 1.26-3.672h13.608l1.26 3.672H51.04zM76.324 40l10.62-14.616v3.528L76.828 14.8h5.292l7.524 10.44-2.16.036L94.936 14.8h5.076L89.968 28.66v-3.384L100.66 40h-5.4l-7.92-11.088h2.124L81.652 40h-5.328zM13 55h87M18.06 91.06l-.252-5.544L31.02 71.8h5.256l-10.98 11.664-2.592 2.844-4.644 4.752zM13.884 97V71.8h4.68V97h-4.68zm17.568 0-9.648-11.484 3.096-3.42L36.924 97h-5.472zm26.24.36c-1.968 0-3.78-.324-5.436-.972-1.656-.648-3.096-1.548-4.32-2.7a12.485 12.485 0 0 1-2.844-4.104C44.42 88 44.084 86.272 44.084 84.4c0-1.872.336-3.588 1.008-5.148a12.007 12.007 0 0 1 2.844-4.104c1.224-1.176 2.664-2.088 4.32-2.736 1.656-.648 3.456-.972 5.4-.972 1.968 0 3.768.324 5.4.972 1.656.648 3.096 1.56 4.32 2.736a12.007 12.007 0 0 1 2.844 4.104c.672 1.56 1.008 3.276 1.008 5.148 0 1.872-.336 3.6-1.008 5.184a12.007 12.007 0 0 1-2.844 4.104c-1.224 1.152-2.664 2.052-4.32 2.7-1.632.648-3.42.972-5.364.972zm-.036-4.104c1.272 0 2.448-.216 3.528-.648a8.26 8.26 0 0 0 2.808-1.836 8.753 8.753 0 0 0 1.836-2.808c.456-1.08.684-2.268.684-3.564 0-1.296-.228-2.472-.684-3.528a8.26 8.26 0 0 0-1.836-2.808 8.011 8.011 0 0 0-2.808-1.872c-1.08-.432-2.256-.648-3.528-.648-1.272 0-2.448.216-3.528.648a8.472 8.472 0 0 0-2.808 1.872 8.723 8.723 0 0 0-1.872 2.808c-.432 1.056-.648 2.232-.648 3.528 0 1.272.216 2.448.648 3.528a9.154 9.154 0 0 0 1.872 2.844 8.26 8.26 0 0 0 2.808 1.836c1.08.432 2.256.648 3.528.648zM86.996 97V75.76h-8.352V71.8h21.384v3.96h-8.352V97h-4.68z"/><path d="M2 2h108v108H2z"/></svg><svg viewBox="0 0 12 19" id="icons--btn-next" xmlns="http://www.w3.org/2000/svg"><path fill-rule="evenodd" clip-rule="evenodd" d="M1.854 17.854a1 1 0 0 0 1.414 0l7.586-7.586a1 1 0 0 0 0-1.414l-.708-.708L2.561.561a1 1 0 1 0-1.414 1.414l6.878 6.879a1 1 0 0 1 0 1.414l-6.171 6.171a1 1 0 0 0 0 1.415z"/></svg><svg viewBox="0 0 11 19" id="icons--btn-prev" xmlns="http://www.w3.org/2000/svg"><path fill-rule="evenodd" clip-rule="evenodd" d="M9.148.981a1 1 0 0 0-1.414.026L.286 8.728a1 1 0 0 0 .026 1.414l.72.694 7.721 7.448a1 1 0 0 0 1.388-1.44L3.14 10.091a1 1 0 0 1-.026-1.414l6.06-6.282A1 1 0 0 0 9.147.98z"/></svg><svg viewBox="0 0 262 176" id="icons--dot" xmlns="http://www.w3.org/2000/svg"><ellipse opacity=".3" cx="4.5" cy="4" rx="4.5" ry="4"/><ellipse opacity=".3" cx="40.5" cy="4" rx="4.5" ry="4"/><circle opacity=".3" cx="76" cy="4" r="4"/><circle opacity=".3" cx="112" cy="4" r="4"/><circle opacity=".3" cx="148" cy="4" r="4"/><circle opacity=".3" cx="184" cy="4" r="4"/><circle opacity=".3" cx="220" cy="4" r="4"/><circle opacity=".3" cx="256" cy="4" r="4"/><ellipse opacity=".3" cx="4.5" cy="28" rx="4.5" ry="4"/><ellipse opacity=".3" cx="40.5" cy="28" rx="4.5" ry="4"/><circle opacity=".3" cx="76" cy="28" r="4"/><circle opacity=".3" cx="112" cy="28" r="4"/><circle opacity=".3" cx="148" cy="28" r="4"/><circle opacity=".3" cx="184" cy="28" r="4"/><circle opacity=".3" cx="220" cy="28" r="4"/><circle opacity=".3" cx="256" cy="28" r="4"/><ellipse opacity=".3" cx="4.5" cy="52" rx="4.5" ry="4"/><ellipse opacity=".3" cx="40.5" cy="52" rx="4.5" ry="4"/><circle opacity=".3" cx="76" cy="52" r="4"/><circle opacity=".3" cx="112" cy="52" r="4"/><circle opacity=".3" cx="148" cy="52" r="4"/><circle opacity=".3" cx="184" cy="52" r="4"/><circle opacity=".3" cx="220" cy="52" r="4"/><circle opacity=".3" cx="256" cy="52" r="4"/><ellipse opacity=".3" cx="4.5" cy="76" rx="4.5" ry="4"/><ellipse opacity=".3" cx="40.5" cy="76" rx="4.5" ry="4"/><circle opacity=".3" cx="76" cy="76" r="4"/><circle opacity=".3" cx="112" cy="76" r="4"/><circle opacity=".3" cx="148" cy="76" r="4"/><circle opacity=".3" cx="184" cy="76" r="4"/><circle opacity=".3" cx="220" cy="76" r="4"/><circle opacity=".3" cx="256" cy="76" r="4"/><ellipse opacity=".3" cx="4.5" cy="100" rx="4.5" ry="4"/><ellipse opacity=".3" cx="40.5" cy="100" rx="4.5" ry="4"/><circle opacity=".3" cx="76" cy="100" r="4"/><circle opacity=".3" cx="112" cy="100" r="4"/><circle opacity=".3" cx="148" cy="100" r="4"/><circle opacity=".3" cx="184" cy="100" r="4"/><circle opacity=".3" cx="220" cy="100" r="4"/><circle opacity=".3" cx="256" cy="100" r="4"/><ellipse opacity=".3" cx="4.5" cy="124" rx="4.5" ry="4"/><ellipse opacity=".3" cx="40.5" cy="124" rx="4.5" ry="4"/><circle opacity=".3" cx="76" cy="124" r="4"/><circle opacity=".3" cx="112" cy="124" r="4"/><circle opacity=".3" cx="148" cy="124" r="4"/><circle opacity=".3" cx="184" cy="124" r="4"/><circle opacity=".3" cx="220" cy="124" r="4"/><circle opacity=".3" cx="256" cy="124" r="4"/><ellipse opacity=".3" cx="4.5" cy="148" rx="4.5" ry="4"/><ellipse opacity=".3" cx="41.5" cy="148" rx="4.5" ry="4"/><circle opacity=".3" cx="78" cy="148" r="4"/><circle opacity=".3" cx="114" cy="148" r="4"/><circle opacity=".3" cx="150" cy="148" r="4"/><circle opacity=".3" cx="186" cy="148" r="4"/><circle opacity=".3" cx="222" cy="148" r="4"/><circle opacity=".3" cx="258" cy="148" r="4"/><ellipse opacity=".3" cx="4.5" cy="172" rx="4.5" ry="4"/><ellipse opacity=".3" cx="41.5" cy="172" rx="4.5" ry="4"/><circle opacity=".3" cx="78" cy="172" r="4"/><circle opacity=".3" cx="114" cy="172" r="4"/><circle opacity=".3" cx="150" cy="172" r="4"/><circle opacity=".3" cx="186" cy="172" r="4"/><circle opacity=".3" cx="222" cy="172" r="4"/><circle opacity=".3" cx="258" cy="172" r="4"/></svg><svg viewBox="0 0 262 176" id="icons--dotted-geen" xmlns="http://www.w3.org/2000/svg"><ellipse opacity=".3" cx="4.5" cy="4" rx="4.5" ry="4"/><ellipse opacity=".3" cx="40.5" cy="4" rx="4.5" ry="4"/><circle opacity=".3" cx="76" cy="4" r="4"/><circle opacity=".3" cx="112" cy="4" r="4"/><circle opacity=".3" cx="148" cy="4" r="4"/><circle opacity=".3" cx="184" cy="4" r="4"/><circle opacity=".3" cx="220" cy="4" r="4"/><circle opacity=".3" cx="256" cy="4" r="4"/><ellipse opacity=".3" cx="4.5" cy="28" rx="4.5" ry="4"/><ellipse opacity=".3" cx="40.5" cy="28" rx="4.5" ry="4"/><circle opacity=".3" cx="76" cy="28" r="4"/><circle opacity=".3" cx="112" cy="28" r="4"/><circle opacity=".3" cx="148" cy="28" r="4"/><circle opacity=".3" cx="184" cy="28" r="4"/><circle opacity=".3" cx="220" cy="28" r="4"/><circle opacity=".3" cx="256" cy="28" r="4"/><ellipse opacity=".3" cx="4.5" cy="52" rx="4.5" ry="4"/><ellipse opacity=".3" cx="40.5" cy="52" rx="4.5" ry="4"/><circle opacity=".3" cx="76" cy="52" r="4"/><circle opacity=".3" cx="112" cy="52" r="4"/><circle opacity=".3" cx="148" cy="52" r="4"/><circle opacity=".3" cx="184" cy="52" r="4"/><circle opacity=".3" cx="220" cy="52" r="4"/><circle opacity=".3" cx="256" cy="52" r="4"/><ellipse opacity=".3" cx="4.5" cy="76" rx="4.5" ry="4"/><ellipse opacity=".3" cx="40.5" cy="76" rx="4.5" ry="4"/><circle opacity=".3" cx="76" cy="76" r="4"/><circle opacity=".3" cx="112" cy="76" r="4"/><circle opacity=".3" cx="148" cy="76" r="4"/><circle opacity=".3" cx="184" cy="76" r="4"/><circle opacity=".3" cx="220" cy="76" r="4"/><circle opacity=".3" cx="256" cy="76" r="4"/><ellipse opacity=".3" cx="4.5" cy="100" rx="4.5" ry="4"/><ellipse opacity=".3" cx="40.5" cy="100" rx="4.5" ry="4"/><circle opacity=".3" cx="76" cy="100" r="4"/><circle opacity=".3" cx="112" cy="100" r="4"/><circle opacity=".3" cx="148" cy="100" r="4"/><circle opacity=".3" cx="184" cy="100" r="4"/><circle opacity=".3" cx="220" cy="100" r="4"/><circle opacity=".3" cx="256" cy="100" r="4"/><ellipse opacity=".3" cx="4.5" cy="124" rx="4.5" ry="4"/><ellipse opacity=".3" cx="40.5" cy="124" rx="4.5" ry="4"/><circle opacity=".3" cx="76" cy="124" r="4"/><circle opacity=".3" cx="112" cy="124" r="4"/><circle opacity=".3" cx="148" cy="124" r="4"/><circle opacity=".3" cx="184" cy="124" r="4"/><circle opacity=".3" cx="220" cy="124" r="4"/><circle opacity=".3" cx="256" cy="124" r="4"/><ellipse opacity=".3" cx="4.5" cy="148" rx="4.5" ry="4"/><ellipse opacity=".3" cx="41.5" cy="148" rx="4.5" ry="4"/><circle opacity=".3" cx="78" cy="148" r="4"/><circle opacity=".3" cx="114" cy="148" r="4"/><circle opacity=".3" cx="150" cy="148" r="4"/><circle opacity=".3" cx="186" cy="148" r="4"/><circle opacity=".3" cx="222" cy="148" r="4"/><circle opacity=".3" cx="258" cy="148" r="4"/><ellipse opacity=".3" cx="4.5" cy="172" rx="4.5" ry="4"/><ellipse opacity=".3" cx="41.5" cy="172" rx="4.5" ry="4"/><circle opacity=".3" cx="78" cy="172" r="4"/><circle opacity=".3" cx="114" cy="172" r="4"/><circle opacity=".3" cx="150" cy="172" r="4"/><circle opacity=".3" cx="186" cy="172" r="4"/><circle opacity=".3" cx="222" cy="172" r="4"/><circle opacity=".3" cx="258" cy="172" r="4"/></svg><svg viewBox="0 0 260 176" id="icons--dotted-gray" xmlns="http://www.w3.org/2000/svg"><ellipse opacity=".3" cx="4.5" cy="4" rx="4.5" ry="4"/><ellipse opacity=".3" cx="40.5" cy="4" rx="4.5" ry="4"/><circle opacity=".3" cx="76" cy="4" r="4"/><circle opacity=".3" cx="112" cy="4" r="4"/><circle opacity=".3" cx="148" cy="4" r="4"/><circle opacity=".3" cx="184" cy="4" r="4"/><circle opacity=".3" cx="220" cy="4" r="4"/><circle opacity=".3" cx="256" cy="4" r="4"/><ellipse opacity=".3" cx="4.5" cy="28" rx="4.5" ry="4"/><ellipse opacity=".3" cx="40.5" cy="28" rx="4.5" ry="4"/><circle opacity=".3" cx="76" cy="28" r="4"/><circle opacity=".3" cx="112" cy="28" r="4"/><circle opacity=".3" cx="148" cy="28" r="4"/><circle opacity=".3" cx="184" cy="28" r="4"/><circle opacity=".3" cx="220" cy="28" r="4"/><circle opacity=".3" cx="256" cy="28" r="4"/><ellipse opacity=".3" cx="4.5" cy="52" rx="4.5" ry="4"/><ellipse opacity=".3" cx="40.5" cy="52" rx="4.5" ry="4"/><circle opacity=".3" cx="76" cy="52" r="4"/><circle opacity=".3" cx="112" cy="52" r="4"/><circle opacity=".3" cx="148" cy="52" r="4"/><circle opacity=".3" cx="184" cy="52" r="4"/><circle opacity=".3" cx="220" cy="52" r="4"/><circle opacity=".3" cx="256" cy="52" r="4"/><ellipse opacity=".3" cx="4.5" cy="76" rx="4.5" ry="4"/><ellipse opacity=".3" cx="40.5" cy="76" rx="4.5" ry="4"/><circle opacity=".3" cx="76" cy="76" r="4"/><circle opacity=".3" cx="112" cy="76" r="4"/><circle opacity=".3" cx="148" cy="76" r="4"/><circle opacity=".3" cx="184" cy="76" r="4"/><circle opacity=".3" cx="220" cy="76" r="4"/><circle opacity=".3" cx="256" cy="76" r="4"/><ellipse opacity=".3" cx="4.5" cy="100" rx="4.5" ry="4"/><ellipse opacity=".3" cx="40.5" cy="100" rx="4.5" ry="4"/><circle opacity=".3" cx="76" cy="100" r="4"/><circle opacity=".3" cx="112" cy="100" r="4"/><circle opacity=".3" cx="148" cy="100" r="4"/><circle opacity=".3" cx="184" cy="100" r="4"/><circle opacity=".3" cx="220" cy="100" r="4"/><circle opacity=".3" cx="256" cy="100" r="4"/><ellipse opacity=".3" cx="4.5" cy="124" rx="4.5" ry="4"/><ellipse opacity=".3" cx="40.5" cy="124" rx="4.5" ry="4"/><circle opacity=".3" cx="76" cy="124" r="4"/><circle opacity=".3" cx="112" cy="124" r="4"/><circle opacity=".3" cx="148" cy="124" r="4"/><circle opacity=".3" cx="184" cy="124" r="4"/><circle opacity=".3" cx="220" cy="124" r="4"/><circle opacity=".3" cx="256" cy="124" r="4"/><ellipse opacity=".3" cx="4.5" cy="148" rx="4.5" ry="4"/><ellipse opacity=".3" cx="40.5" cy="148" rx="4.5" ry="4"/><circle opacity=".3" cx="76" cy="148" r="4"/><circle opacity=".3" cx="112" cy="148" r="4"/><circle opacity=".3" cx="148" cy="148" r="4"/><circle opacity=".3" cx="184" cy="148" r="4"/><circle opacity=".3" cx="220" cy="148" r="4"/><circle opacity=".3" cx="256" cy="148" r="4"/><ellipse opacity=".3" cx="4.5" cy="172" rx="4.5" ry="4"/><ellipse opacity=".3" cx="40.5" cy="172" rx="4.5" ry="4"/><circle opacity=".3" cx="76" cy="172" r="4"/><circle opacity=".3" cx="112" cy="172" r="4"/><circle opacity=".3" cx="148" cy="172" r="4"/><circle opacity=".3" cx="184" cy="172" r="4"/><circle opacity=".3" cx="220" cy="172" r="4"/><circle opacity=".3" cx="256" cy="172" r="4"/></svg><svg viewBox="0 0 262 176" id="icons--dotted-green" xmlns="http://www.w3.org/2000/svg"><ellipse opacity=".3" cx="4.5" cy="4" rx="4.5" ry="4"/><ellipse opacity=".3" cx="40.5" cy="4" rx="4.5" ry="4"/><circle opacity=".3" cx="76" cy="4" r="4"/><circle opacity=".3" cx="112" cy="4" r="4"/><circle opacity=".3" cx="148" cy="4" r="4"/><circle opacity=".3" cx="184" cy="4" r="4"/><circle opacity=".3" cx="220" cy="4" r="4"/><circle opacity=".3" cx="256" cy="4" r="4"/><ellipse opacity=".3" cx="4.5" cy="28" rx="4.5" ry="4"/><ellipse opacity=".3" cx="40.5" cy="28" rx="4.5" ry="4"/><circle opacity=".3" cx="76" cy="28" r="4"/><circle opacity=".3" cx="112" cy="28" r="4"/><circle opacity=".3" cx="148" cy="28" r="4"/><circle opacity=".3" cx="184" cy="28" r="4"/><circle opacity=".3" cx="220" cy="28" r="4"/><circle opacity=".3" cx="256" cy="28" r="4"/><ellipse opacity=".3" cx="4.5" cy="52" rx="4.5" ry="4"/><ellipse opacity=".3" cx="40.5" cy="52" rx="4.5" ry="4"/><circle opacity=".3" cx="76" cy="52" r="4"/><circle opacity=".3" cx="112" cy="52" r="4"/><circle opacity=".3" cx="148" cy="52" r="4"/><circle opacity=".3" cx="184" cy="52" r="4"/><circle opacity=".3" cx="220" cy="52" r="4"/><circle opacity=".3" cx="256" cy="52" r="4"/><ellipse opacity=".3" cx="4.5" cy="76" rx="4.5" ry="4"/><ellipse opacity=".3" cx="40.5" cy="76" rx="4.5" ry="4"/><circle opacity=".3" cx="76" cy="76" r="4"/><circle opacity=".3" cx="112" cy="76" r="4"/><circle opacity=".3" cx="148" cy="76" r="4"/><circle opacity=".3" cx="184" cy="76" r="4"/><circle opacity=".3" cx="220" cy="76" r="4"/><circle opacity=".3" cx="256" cy="76" r="4"/><ellipse opacity=".3" cx="4.5" cy="100" rx="4.5" ry="4"/><ellipse opacity=".3" cx="40.5" cy="100" rx="4.5" ry="4"/><circle opacity=".3" cx="76" cy="100" r="4"/><circle opacity=".3" cx="112" cy="100" r="4"/><circle opacity=".3" cx="148" cy="100" r="4"/><circle opacity=".3" cx="184" cy="100" r="4"/><circle opacity=".3" cx="220" cy="100" r="4"/><circle opacity=".3" cx="256" cy="100" r="4"/><ellipse opacity=".3" cx="4.5" cy="124" rx="4.5" ry="4"/><ellipse opacity=".3" cx="40.5" cy="124" rx="4.5" ry="4"/><circle opacity=".3" cx="76" cy="124" r="4"/><circle opacity=".3" cx="112" cy="124" r="4"/><circle opacity=".3" cx="148" cy="124" r="4"/><circle opacity=".3" cx="184" cy="124" r="4"/><circle opacity=".3" cx="220" cy="124" r="4"/><circle opacity=".3" cx="256" cy="124" r="4"/><ellipse opacity=".3" cx="4.5" cy="148" rx="4.5" ry="4"/><ellipse opacity=".3" cx="41.5" cy="148" rx="4.5" ry="4"/><circle opacity=".3" cx="78" cy="148" r="4"/><circle opacity=".3" cx="114" cy="148" r="4"/><circle opacity=".3" cx="150" cy="148" r="4"/><circle opacity=".3" cx="186" cy="148" r="4"/><circle opacity=".3" cx="222" cy="148" r="4"/><circle opacity=".3" cx="258" cy="148" r="4"/><ellipse opacity=".3" cx="4.5" cy="172" rx="4.5" ry="4"/><ellipse opacity=".3" cx="41.5" cy="172" rx="4.5" ry="4"/><circle opacity=".3" cx="78" cy="172" r="4"/><circle opacity=".3" cx="114" cy="172" r="4"/><circle opacity=".3" cx="150" cy="172" r="4"/><circle opacity=".3" cx="186" cy="172" r="4"/><circle opacity=".3" cx="222" cy="172" r="4"/><circle opacity=".3" cx="258" cy="172" r="4"/></svg><svg viewBox="0 0 262 176" id="icons--dotted-yellow" xmlns="http://www.w3.org/2000/svg"><ellipse opacity=".3" cx="4.5" cy="4" rx="4.5" ry="4"/><ellipse opacity=".3" cx="40.5" cy="4" rx="4.5" ry="4"/><circle opacity=".3" cx="76" cy="4" r="4"/><circle opacity=".3" cx="112" cy="4" r="4"/><circle opacity=".3" cx="148" cy="4" r="4"/><circle opacity=".3" cx="184" cy="4" r="4"/><circle opacity=".3" cx="220" cy="4" r="4"/><circle opacity=".3" cx="256" cy="4" r="4"/><ellipse opacity=".3" cx="4.5" cy="28" rx="4.5" ry="4"/><ellipse opacity=".3" cx="40.5" cy="28" rx="4.5" ry="4"/><circle opacity=".3" cx="76" cy="28" r="4"/><circle opacity=".3" cx="112" cy="28" r="4"/><circle opacity=".3" cx="148" cy="28" r="4"/><circle opacity=".3" cx="184" cy="28" r="4"/><circle opacity=".3" cx="220" cy="28" r="4"/><circle opacity=".3" cx="256" cy="28" r="4"/><ellipse opacity=".3" cx="4.5" cy="52" rx="4.5" ry="4"/><ellipse opacity=".3" cx="40.5" cy="52" rx="4.5" ry="4"/><circle opacity=".3" cx="76" cy="52" r="4"/><circle opacity=".3" cx="112" cy="52" r="4"/><circle opacity=".3" cx="148" cy="52" r="4"/><circle opacity=".3" cx="184" cy="52" r="4"/><circle opacity=".3" cx="220" cy="52" r="4"/><circle opacity=".3" cx="256" cy="52" r="4"/><ellipse opacity=".3" cx="4.5" cy="76" rx="4.5" ry="4"/><ellipse opacity=".3" cx="40.5" cy="76" rx="4.5" ry="4"/><circle opacity=".3" cx="76" cy="76" r="4"/><circle opacity=".3" cx="112" cy="76" r="4"/><circle opacity=".3" cx="148" cy="76" r="4"/><circle opacity=".3" cx="184" cy="76" r="4"/><circle opacity=".3" cx="220" cy="76" r="4"/><circle opacity=".3" cx="256" cy="76" r="4"/><ellipse opacity=".3" cx="4.5" cy="100" rx="4.5" ry="4"/><ellipse opacity=".3" cx="40.5" cy="100" rx="4.5" ry="4"/><circle opacity=".3" cx="76" cy="100" r="4"/><circle opacity=".3" cx="112" cy="100" r="4"/><circle opacity=".3" cx="148" cy="100" r="4"/><circle opacity=".3" cx="184" cy="100" r="4"/><circle opacity=".3" cx="220" cy="100" r="4"/><circle opacity=".3" cx="256" cy="100" r="4"/><ellipse opacity=".3" cx="4.5" cy="124" rx="4.5" ry="4"/><ellipse opacity=".3" cx="40.5" cy="124" rx="4.5" ry="4"/><circle opacity=".3" cx="76" cy="124" r="4"/><circle opacity=".3" cx="112" cy="124" r="4"/><circle opacity=".3" cx="148" cy="124" r="4"/><circle opacity=".3" cx="184" cy="124" r="4"/><circle opacity=".3" cx="220" cy="124" r="4"/><circle opacity=".3" cx="256" cy="124" r="4"/><ellipse opacity=".3" cx="4.5" cy="148" rx="4.5" ry="4"/><ellipse opacity=".3" cx="41.5" cy="148" rx="4.5" ry="4"/><circle opacity=".3" cx="78" cy="148" r="4"/><circle opacity=".3" cx="114" cy="148" r="4"/><circle opacity=".3" cx="150" cy="148" r="4"/><circle opacity=".3" cx="186" cy="148" r="4"/><circle opacity=".3" cx="222" cy="148" r="4"/><circle opacity=".3" cx="258" cy="148" r="4"/><ellipse opacity=".3" cx="4.5" cy="172" rx="4.5" ry="4"/><ellipse opacity=".3" cx="41.5" cy="172" rx="4.5" ry="4"/><circle opacity=".3" cx="78" cy="172" r="4"/><circle opacity=".3" cx="114" cy="172" r="4"/><circle opacity=".3" cx="150" cy="172" r="4"/><circle opacity=".3" cx="186" cy="172" r="4"/><circle opacity=".3" cx="222" cy="172" r="4"/><circle opacity=".3" cx="258" cy="172" r="4"/><ellipse opacity=".3" cx="4.5" cy="4" rx="4.5" ry="4"/><ellipse opacity=".3" cx="40.5" cy="4" rx="4.5" ry="4"/><circle opacity=".3" cx="76" cy="4" r="4"/><circle opacity=".3" cx="112" cy="4" r="4"/><circle opacity=".3" cx="148" cy="4" r="4"/><circle opacity=".3" cx="184" cy="4" r="4"/><circle opacity=".3" cx="220" cy="4" r="4"/><circle opacity=".3" cx="256" cy="4" r="4"/><ellipse opacity=".3" cx="4.5" cy="28" rx="4.5" ry="4"/><ellipse opacity=".3" cx="40.5" cy="28" rx="4.5" ry="4"/><circle opacity=".3" cx="76" cy="28" r="4"/><circle opacity=".3" cx="112" cy="28" r="4"/><circle opacity=".3" cx="148" cy="28" r="4"/><circle opacity=".3" cx="184" cy="28" r="4"/><circle opacity=".3" cx="220" cy="28" r="4"/><circle opacity=".3" cx="256" cy="28" r="4"/><ellipse opacity=".3" cx="4.5" cy="52" rx="4.5" ry="4"/><ellipse opacity=".3" cx="40.5" cy="52" rx="4.5" ry="4"/><circle opacity=".3" cx="76" cy="52" r="4"/><circle opacity=".3" cx="112" cy="52" r="4"/><circle opacity=".3" cx="148" cy="52" r="4"/><circle opacity=".3" cx="184" cy="52" r="4"/><circle opacity=".3" cx="220" cy="52" r="4"/><circle opacity=".3" cx="256" cy="52" r="4"/><ellipse opacity=".3" cx="4.5" cy="76" rx="4.5" ry="4"/><ellipse opacity=".3" cx="40.5" cy="76" rx="4.5" ry="4"/><circle opacity=".3" cx="76" cy="76" r="4"/><circle opacity=".3" cx="112" cy="76" r="4"/><circle opacity=".3" cx="148" cy="76" r="4"/><circle opacity=".3" cx="184" cy="76" r="4"/><circle opacity=".3" cx="220" cy="76" r="4"/><circle opacity=".3" cx="256" cy="76" r="4"/><ellipse opacity=".3" cx="4.5" cy="100" rx="4.5" ry="4"/><ellipse opacity=".3" cx="40.5" cy="100" rx="4.5" ry="4"/><circle opacity=".3" cx="76" cy="100" r="4"/><circle opacity=".3" cx="112" cy="100" r="4"/><circle opacity=".3" cx="148" cy="100" r="4"/><circle opacity=".3" cx="184" cy="100" r="4"/><circle opacity=".3" cx="220" cy="100" r="4"/><circle opacity=".3" cx="256" cy="100" r="4"/><ellipse opacity=".3" cx="4.5" cy="124" rx="4.5" ry="4"/><ellipse opacity=".3" cx="40.5" cy="124" rx="4.5" ry="4"/><circle opacity=".3" cx="76" cy="124" r="4"/><circle opacity=".3" cx="112" cy="124" r="4"/><circle opacity=".3" cx="148" cy="124" r="4"/><circle opacity=".3" cx="184" cy="124" r="4"/><circle opacity=".3" cx="220" cy="124" r="4"/><circle opacity=".3" cx="256" cy="124" r="4"/><ellipse opacity=".3" cx="4.5" cy="148" rx="4.5" ry="4"/><ellipse opacity=".3" cx="41.5" cy="148" rx="4.5" ry="4"/><circle opacity=".3" cx="78" cy="148" r="4"/><circle opacity=".3" cx="114" cy="148" r="4"/><circle opacity=".3" cx="150" cy="148" r="4"/><circle opacity=".3" cx="186" cy="148" r="4"/><circle opacity=".3" cx="222" cy="148" r="4"/><circle opacity=".3" cx="258" cy="148" r="4"/><ellipse opacity=".3" cx="4.5" cy="172" rx="4.5" ry="4"/><ellipse opacity=".3" cx="41.5" cy="172" rx="4.5" ry="4"/><circle opacity=".3" cx="78" cy="172" r="4"/><circle opacity=".3" cx="114" cy="172" r="4"/><circle opacity=".3" cx="150" cy="172" r="4"/><circle opacity=".3" cx="186" cy="172" r="4"/><circle opacity=".3" cx="222" cy="172" r="4"/><circle opacity=".3" cx="258" cy="172" r="4"/></svg><svg viewBox="0 0 12 19" id="icons--fb" xmlns="http://www.w3.org/2000/svg"><path d="M10.468 10.688 11 7.248H7.667v-2.23c0-.941.466-1.858 1.959-1.858h1.516V.232S9.766 0 8.45 0C5.704 0 3.91 1.647 3.91 4.628v2.62H.858v3.44h3.053V19h3.756v-8.313h2.8z"/></svg><svg viewBox="0 0 16 16" id="icons--inst" xmlns="http://www.w3.org/2000/svg"><path d="M8.004 3.957c-2.272 0-4.104 1.804-4.104 4.04 0 2.236 1.832 4.039 4.104 4.039 2.271 0 4.103-1.803 4.103-4.04 0-2.235-1.832-4.039-4.103-4.039zm0 6.666c-1.468 0-2.668-1.178-2.668-2.626 0-1.449 1.196-2.627 2.668-2.627 1.471 0 2.667 1.178 2.667 2.627 0 1.448-1.2 2.626-2.667 2.626zm5.228-6.831a.948.948 0 0 1-.957.942.948.948 0 0 1-.957-.942.95.95 0 0 1 .957-.942.95.95 0 0 1 .957.942zm2.718.956c-.06-1.262-.354-2.38-1.293-3.301-.936-.921-2.071-1.21-3.353-1.273C9.982.1 6.02.1 4.7.174c-1.279.06-2.414.348-3.354 1.27-.939.92-1.228 2.038-1.292 3.3-.075 1.301-.075 5.2 0 6.501.06 1.262.353 2.38 1.292 3.301.94.921 2.072 1.21 3.354 1.273 1.321.074 5.282.074 6.604 0 1.282-.06 2.417-.348 3.353-1.273.936-.921 1.229-2.039 1.293-3.301.075-1.3.075-5.196 0-6.497zm-1.707 7.893a2.68 2.68 0 0 1-1.522 1.497c-1.053.412-3.553.317-4.717.317-1.165 0-3.668.091-4.718-.317a2.68 2.68 0 0 1-1.522-1.497c-.418-1.037-.321-3.498-.321-4.644 0-1.147-.093-3.611.321-4.645a2.68 2.68 0 0 1 1.522-1.497c1.053-.412 3.553-.317 4.718-.317 1.164 0 3.667-.091 4.717.317.7.274 1.24.805 1.522 1.497.418 1.038.321 3.498.321 4.645 0 1.146.097 3.61-.321 4.644z"/></svg><svg viewBox="0 0 22 20" id="icons--letter" xmlns="http://www.w3.org/2000/svg"><path d="M0 3.884C0 2.105 1.231.663 2.75.663h16.5c1.517 0 2.75 1.441 2.75 3.22v12.878c0 1.776-1.233 3.22-2.75 3.22H2.75c-1.519 0-2.75-1.444-2.75-3.22V3.883zm2.063 0v1.111l7.412 7.124c.885.855 2.165.855 3.05 0l7.412-7.124V3.838c0-.397-.309-.805-.687-.805H2.75c-.38 0-.688.408-.688.805v.046zm0 4.235v8.643c0 .443.307.805.687.805h16.5c.378 0 .688-.362.688-.805V8.12l-6.102 5.866c-1.65 1.585-4.022 1.585-5.71 0L2.062 8.12z"/></svg><svg viewBox="0 0 14 14" id="icons--linkedin" xmlns="http://www.w3.org/2000/svg"><path d="M3.134 14H.23V4.653h2.903V14zM1.68 3.378C.753 3.378 0 2.61 0 1.681a1.68 1.68 0 1 1 3.362 0c0 .929-.753 1.697-1.681 1.697zM13.997 14H11.1V9.45c0-1.084-.022-2.475-1.51-2.475-1.508 0-1.74 1.178-1.74 2.397V14h-2.9V4.653h2.785v1.275h.04c.388-.734 1.334-1.51 2.747-1.51C13.46 4.419 14 6.354 14 8.867V14h-.003z"/></svg><svg viewBox="0 0 25 31" id="icons--return" xmlns="http://www.w3.org/2000/svg"><path d="M6.111 30 1 24.889l5.111-5.111"/><path d="M24 17.222v2.556a5.111 5.111 0 0 1-5.111 5.11H1M18.889 1.889 24 7l-5.111 5.111"/><path d="M1 14.667V12.11A5.111 5.111 0 0 1 6.111 7H24"/></svg><svg viewBox="0 0 29 29" id="icons--send" xmlns="http://www.w3.org/2000/svg"><path d="M28.213.985c.572.379.872 1.032.765 1.686L25.353 25.15a1.73 1.73 0 0 1-.907 1.243c-.487.26-1.07.292-1.586.087l-7.153-2.837-2.272 4.025c-.294.524-.923.79-1.529.643-.606-.145-1.03-.664-1.03-1.259v-5.187c0-.286.101-.567.288-.794l9.363-11.488c.142-.383-.368-.772-.736-.454L9.65 17.876l-1.81 1.563a1.878 1.878 0 0 1-1.914.313L1.111 17.84c-.635-.254-1.065-.827-1.105-1.486-.04-.66.312-1.28.912-1.61L26.293.91a1.892 1.892 0 0 1 1.926.075h-.006z"/></svg><svg viewBox="0 0 35 29" id="icons--shipping" xmlns="http://www.w3.org/2000/svg"><path d="M26.66 27a3.523 3.523 0 1 0-.001-7.045 3.523 3.523 0 0 0 0 7.045zM8.34 27a3.523 3.523 0 1 0 0-7.045 3.523 3.523 0 0 0 0 7.045z"/><path d="M23.136 8.682h5.637L33 12.909v7.046h-9.864V8.682zm0-7.046H2v18.319h21.136V1.636z"/></svg><svg viewBox="0 0 28 30" id="icons--shop-bag" xmlns="http://www.w3.org/2000/svg"><path d="M6 2 2 7.333V26a2.667 2.667 0 0 0 2.667 2.667h18.666A2.667 2.667 0 0 0 26 26V7.333L22 2H6zm13.333 10.667a5.333 5.333 0 1 1-10.666 0M2 7.333h24"/></svg><svg viewBox="0 0 29 29" id="icons--support" xmlns="http://www.w3.org/2000/svg"><path d="M14.5 28C21.956 28 28 21.956 28 14.5S21.956 1 14.5 1 1 7.044 1 14.5 7.044 28 14.5 28z"/><path d="M14.5 19.9a5.4 5.4 0 1 0 0-10.8 5.4 5.4 0 0 0 0 10.8zm3.82-1.58 5.724 5.724m-19.088 0 5.724-5.724m7.64-7.64 5.724-5.724M18.32 10.68l4.766-4.766m-18.13-.958 5.724 5.724"/></svg><svg viewBox="0 0 17 15" id="icons--tw" xmlns="http://www.w3.org/2000/svg"><path d="M15.252 4.037c.011.151.011.302.011.453 0 4.606-3.505 9.913-9.913 9.913A9.846 9.846 0 0 1 0 12.84c.28.033.55.044.841.044 1.63 0 3.129-.55 4.326-1.489a3.49 3.49 0 0 1-3.258-2.416c.216.032.432.054.658.054.313 0 .626-.043.917-.119A3.485 3.485 0 0 1 .69 5.493V5.45c.464.26 1.004.421 1.575.443A3.482 3.482 0 0 1 .712 2.99c0-.647.172-1.24.475-1.758A9.904 9.904 0 0 0 8.37 4.879a3.933 3.933 0 0 1-.087-.798A3.483 3.483 0 0 1 11.768.596c1.003 0 1.91.421 2.546 1.1a6.86 6.86 0 0 0 2.211-.84 3.475 3.475 0 0 1-1.531 1.92A6.984 6.984 0 0 0 17 2.235a7.488 7.488 0 0 1-1.748 1.801z"/></svg><svg viewBox="0 0 81 26" id="logo" xmlns="http://www.w3.org/2000/svg"><path d="M.557 25V1.727h14.432V4.75H4.069v7.09h9.886v3.012H4.067V25H.557zm28.44-7.239V7.545h3.41V25h-3.342v-3.023h-.181c-.402.932-1.046 1.709-1.932 2.33-.88.614-1.974.92-3.284.92-1.122 0-2.114-.246-2.978-.738-.856-.5-1.53-1.239-2.022-2.216-.485-.977-.728-2.186-.728-3.625V7.545h3.398V18.24c0 1.189.33 2.136.989 2.84.659.705 1.515 1.057 2.568 1.057.636 0 1.269-.159 1.898-.477.636-.318 1.163-.8 1.58-1.443.423-.644.632-1.462.624-2.455zM36.972 25V7.545h3.284v2.773h.181a4.22 4.22 0 0 1 1.682-2.216c.81-.545 1.728-.818 2.75-.818a14.526 14.526 0 0 1 1.444.08v3.25a6.119 6.119 0 0 0-.728-.125 6.943 6.943 0 0 0-1.045-.08c-.803 0-1.52.17-2.148.511-.621.334-1.114.8-1.477 1.398-.364.591-.546 1.265-.546 2.023V25h-3.397zM52.65 14.636V25h-3.398V7.545h3.261v2.841h.216a4.989 4.989 0 0 1 1.887-2.227c.863-.56 1.95-.84 3.26-.84 1.19 0 2.232.25 3.126.75.894.492 1.587 1.226 2.08 2.204.492.977.738 2.185.738 3.625V25h-3.398V14.307c0-1.265-.33-2.254-.988-2.966-.66-.72-1.565-1.08-2.716-1.08-.788 0-1.489.17-2.102.512-.607.34-1.088.84-1.444 1.5-.348.651-.522 1.44-.522 2.363zM68.378 25V7.545h3.398V25h-3.398zm1.716-20.148a2.16 2.16 0 0 1-1.523-.59c-.417-.402-.625-.88-.625-1.432 0-.561.208-1.038.625-1.432a2.138 2.138 0 0 1 1.523-.603c.59 0 1.094.201 1.511.603.424.394.636.87.636 1.432 0 .553-.212 1.03-.636 1.431a2.12 2.12 0 0 1-1.511.591z"/><path d="M78.585 25.216c-.621 0-1.155-.22-1.602-.66a2.2 2.2 0 0 1-.67-1.613c0-.621.223-1.151.67-1.59a2.183 2.183 0 0 1 1.602-.671c.621 0 1.156.223 1.603.67.447.44.67.97.67 1.591 0 .417-.106.8-.318 1.148-.205.34-.478.613-.818.818-.341.205-.72.307-1.137.307z" fill-opacity=".28"/></svg><svg viewBox="0 0 90 26" id="logo--black" xmlns="http://www.w3.org/2000/svg"><path d="M.557 25V1.727h14.432V4.75H4.069v7.09h9.886v3.012H4.067V25H.557zm28.44-7.239V7.545h3.41V25h-3.342v-3.023h-.181c-.402.932-1.046 1.709-1.932 2.33-.88.614-1.974.92-3.284.92-1.122 0-2.114-.246-2.978-.738-.856-.5-1.53-1.239-2.022-2.216-.485-.977-.728-2.186-.728-3.625V7.545h3.398V18.24c0 1.189.33 2.136.989 2.84.659.705 1.515 1.057 2.568 1.057.636 0 1.269-.159 1.898-.477.636-.318 1.163-.8 1.58-1.443.423-.644.632-1.462.624-2.455zM36.972 25V7.545h3.284v2.773h.181a4.22 4.22 0 0 1 1.682-2.216c.81-.545 1.728-.818 2.75-.818a14.526 14.526 0 0 1 1.444.08v3.25a6.119 6.119 0 0 0-.728-.125 6.943 6.943 0 0 0-1.045-.08c-.803 0-1.52.17-2.148.511-.621.334-1.114.8-1.477 1.398-.364.591-.546 1.265-.546 2.023V25h-3.397zM52.65 14.636V25h-3.398V7.545h3.261v2.841h.216a4.989 4.989 0 0 1 1.887-2.227c.863-.56 1.95-.84 3.26-.84 1.19 0 2.232.25 3.126.75.894.492 1.587 1.226 2.08 2.204.492.977.738 2.185.738 3.625V25h-3.398V14.307c0-1.265-.33-2.254-.988-2.966-.66-.72-1.565-1.08-2.716-1.08-.788 0-1.489.17-2.102.512-.607.34-1.088.84-1.444 1.5-.348.651-.522 1.44-.522 2.363zM68.378 25V7.545h3.398V25h-3.398zm1.716-20.148a2.16 2.16 0 0 1-1.523-.59c-.417-.402-.625-.88-.625-1.432 0-.561.208-1.038.625-1.432a2.138 2.138 0 0 1 1.523-.603c.59 0 1.094.201 1.511.603.424.394.636.87.636 1.432 0 .553-.212 1.03-.636 1.431a2.12 2.12 0 0 1-1.511.591zM78.585 25.216c-.621 0-1.155-.22-1.602-.66a2.2 2.2 0 0 1-.67-1.613c0-.621.223-1.151.67-1.59a2.183 2.183 0 0 1 1.602-.671c.621 0 1.156.223 1.603.67.447.44.67.97.67 1.591 0 .417-.106.8-.318 1.148-.205.34-.478.613-.818.818-.341.205-.72.307-1.137.307z"/><path d="M87.648 25.216c-.621 0-1.156-.22-1.602-.66a2.2 2.2 0 0 1-.671-1.613c0-.621.224-1.151.67-1.59a2.184 2.184 0 0 1 1.603-.671c.62 0 1.155.223 1.602.67.447.44.67.97.67 1.591 0 .417-.106.8-.318 1.148-.204.34-.477.613-.818.818a2.16 2.16 0 0 1-1.136.307z" fill-opacity=".28"/></svg></svg>